<?xml version="1.0" encoding="UTF-8" standalone="no"?>
<!DOCTYPE svg PUBLIC "-//W3C//DTD SVG 1.1//EN" "http://www.w3.org/Graphics/SVG/1.1/DTD/svg11.dtd">
<!-- Created with Vectornator (http://vectornator.io/) -->
<svg height="100%" stroke-miterlimit="10" style="fill-rule:nonzero;clip-rule:evenodd;stroke-linecap:round;stroke-linejoin:round;" version="1.1" viewBox="424.516 565.823 55.5926 76.8927" width="100%" xml:space="preserve" xmlns="http://www.w3.org/2000/svg" xmlns:vectornator="http://vectornator.io" xmlns:xlink="http://www.w3.org/1999/xlink">
<defs/>
<g id="Layer">
<g opacity="1">
<path d="M454.141 565.908C452.122 565.781 450.318 565.799 448.703 565.94C445.474 566.221 442.373 567.705 439.422 570.408C436.472 573.111 434.457 575.943 433.391 578.908C432.325 581.873 431 584.162 429.391 585.783C427.782 587.405 426.98 588.769 426.985 589.846C426.989 590.923 428.208 592.788 430.641 595.471C433.074 598.153 435.358 600.027 437.516 601.096C439.673 602.164 445.606 602.832 455.297 603.065C464.988 603.297 471.037 602.595 473.453 600.971C475.87 599.347 477.497 597.577 478.297 595.69C479.098 593.802 479.604 591.127 479.86 587.627C480.115 584.127 479.863 581.278 479.047 579.127C478.232 576.977 476.194 574.588 472.953 571.908C469.713 569.229 465.677 567.479 460.828 566.69" fill="#000000" fill-rule="nonzero" opacity="0.998657" stroke="none"/>
<path d="M439.016 567.19C436.596 568.006 434.186 568.81 431.766 569.627C426.927 571.261 424.499 574.364 424.516 578.94C424.533 583.516 425.095 585.925 426.172 586.19C427.25 586.455 428.042 586.324 428.578 585.783C429.115 585.243 430.996 581.999 434.203 576.065" fill="#000000" fill-rule="nonzero" opacity="0.998657" stroke="none"/>
<path d="M455.328 606.283C444.562 606.594 437.964 607.565 435.547 609.19C433.131 610.814 431.123 612.686 429.516 614.846C427.909 617.005 427.242 618.782 427.516 620.127C427.79 621.472 427.372 622.397 426.297 622.94C425.223 623.482 424.687 625.914 424.703 630.221C424.72 634.528 427.164 637.605 432.016 639.471C434.442 640.404 436.871 641.35 439.297 642.283C437.536 639.329 435.777 636.363 434.016 633.408C430.494 627.5 429.011 624.293 429.547 623.752C429.815 623.482 430.061 623.21 430.328 622.94C431.279 625.089 432.253 627.227 433.203 629.377C435.104 633.677 437.136 636.888 439.297 639.033C441.459 641.179 445.362 642.38 451.016 642.627C456.67 642.875 461.238 642.604 464.735 641.783C468.231 640.963 471.581 638.795 474.797 635.283C478.014 631.772 479.758 628.527 480.016 625.565C480.274 622.603 479.992 619.51 479.172 616.283C478.352 613.056 476.864 610.503 474.703 608.627" fill="#000000" fill-rule="nonzero" opacity="0.998657" stroke="none"/>
</g>
</g>
</svg>
