<?xml version="1.0" encoding="UTF-8" standalone="no"?>
<!DOCTYPE svg PUBLIC "-//W3C//DTD SVG 1.1//EN" "http://www.w3.org/Graphics/SVG/1.1/DTD/svg11.dtd">
<!-- Created with Vectornator (http://vectornator.io/) -->
<svg height="100%" stroke-miterlimit="10" style="fill-rule:nonzero;clip-rule:evenodd;stroke-linecap:round;stroke-linejoin:round;" version="1.1" viewBox="382.531 524.508 72.8125 159.938" width="100%" xml:space="preserve" xmlns="http://www.w3.org/2000/svg" xmlns:vectornator="http://vectornator.io" xmlns:xlink="http://www.w3.org/1999/xlink">
<defs/>
<g id="Layer">
<g opacity="1">
<g opacity="1">
<path d="M388.906 653.571C387.561 653.711 386.221 653.837 384.875 653.977C385.413 653.975 385.961 653.979 386.5 653.977C387.577 653.973 389.045 655.05 390.937 657.196C392.83 659.342 394.468 660.251 395.812 659.977C397.157 659.703 398.228 659.026 399.031 657.946C399.835 656.866 401.314 656.466 403.469 656.727C404.546 656.858 405.61 657.003 406.687 657.133C405.882 657.54 405.088 657.945 404.281 658.352C402.669 659.166 401.732 660.361 401.469 661.977C401.337 662.785 401.194 663.607 401.062 664.415C401.735 664.412 402.421 664.417 403.094 664.415C404.44 664.409 406.459 665.079 409.156 666.415C411.853 667.75 420.211 669.714 434.219 672.352C441.222 673.671 448.215 675.002 455.219 676.321C454.813 675.919 454.405 675.505 454 675.102C453.189 674.298 449.835 672.964 443.906 671.102C440.942 670.171 437.965 669.252 435 668.321C435.403 668.05 435.816 667.779 436.219 667.508C436.621 667.238 437.003 666.967 437.406 666.696C433.634 665.633 429.866 664.571 426.094 663.508C418.549 661.384 413.69 659.659 411.531 658.321C409.373 656.983 405.744 655.784 400.625 654.727" fill="#000000" fill-rule="nonzero" opacity="0.998657" stroke="none"/>
<path d="M397.844 667.665C395.69 667.673 393.967 668.208 392.625 669.29C391.283 670.371 389.252 671.178 386.562 671.727C385.218 672.001 383.876 672.296 382.531 672.571C385.765 673.501 388.985 674.422 392.219 675.352C398.686 677.212 402.455 678.138 403.531 678.133C404.07 678.131 404.618 678.136 405.156 678.133C405.021 677.865 404.886 677.59 404.75 677.321C404.614 677.052 404.479 676.777 404.344 676.508C406.093 676.502 407.844 676.515 409.594 676.508C413.093 676.495 421.187 677.117 433.844 678.415C440.172 679.064 446.484 679.703 452.812 680.352C447.288 678.758 441.775 677.165 436.25 675.571C425.201 672.383 417.388 670.804 412.812 670.821C408.236 670.838 403.664 671.551 399.094 672.915C394.523 674.278 392.084 674.671 391.812 674.133C391.677 673.865 391.542 673.59 391.406 673.321C393.692 672.774 395.995 672.243 398.281 671.696C400.567 671.149 402.838 670.586 405.125 670.04C404.45 669.638 403.769 669.253 403.094 668.852" fill="#000000" fill-rule="nonzero" opacity="0.998657" stroke="none"/>
<path d="M405.969 678.946C410.952 679.734 415.923 680.501 420.906 681.29C430.872 682.867 437.215 683.538 439.906 683.258C441.252 683.119 442.592 682.961 443.937 682.821C443.4 683.092 442.881 683.362 442.344 683.633C441.806 683.905 441.256 684.174 440.719 684.446C442.602 684.304 444.491 684.181 446.375 684.04C448.259 683.898 450.147 683.744 452.031 683.602C450.414 683.07 448.773 682.541 447.156 682.008C443.922 680.944 436.271 680.157 424.156 679.665" fill="#000000" fill-rule="nonzero" opacity="0.998657" stroke="none"/>
</g>
<g opacity="1">
<path d="M389.031 555.378C387.686 555.238 386.346 555.111 385 554.972C385.538 554.974 386.086 554.969 386.625 554.972C387.702 554.976 389.17 553.899 391.062 551.753C392.955 549.607 394.593 548.698 395.938 548.973C397.282 549.247 398.353 549.924 399.156 551.003C399.96 552.083 401.439 552.483 403.594 552.222C404.671 552.092 405.735 551.946 406.812 551.816C406.007 551.409 405.213 551.004 404.406 550.597C402.794 549.784 401.857 548.589 401.594 546.973C401.462 546.165 401.319 545.344 401.187 544.536C401.86 544.538 402.546 544.533 403.219 544.536C404.565 544.541 406.584 543.871 409.281 542.536C411.978 541.201 420.336 539.238 434.344 536.6C441.347 535.281 448.34 533.95 455.344 532.631C454.938 533.034 454.53 533.448 454.125 533.85C453.314 534.654 449.96 535.988 444.031 537.849C441.067 538.78 438.09 539.699 435.125 540.63C435.528 540.901 435.941 541.172 436.344 541.443C436.746 541.713 437.128 541.984 437.531 542.255C433.759 543.317 429.991 544.38 426.219 545.442C418.674 547.566 413.815 549.291 411.656 550.629C409.498 551.966 405.869 553.165 400.75 554.222" fill="#000000" fill-rule="nonzero" opacity="0.998657" stroke="none"/>
<path d="M397.969 541.286C395.815 541.278 394.092 540.743 392.75 539.662C391.408 538.58 389.377 537.773 386.688 537.224C385.343 536.95 384.001 536.655 382.656 536.381C385.89 535.451 389.11 534.53 392.344 533.6C398.811 531.741 402.58 530.815 403.656 530.819C404.195 530.821 404.743 530.817 405.281 530.819C405.146 531.088 405.011 531.363 404.875 531.632C404.739 531.9 404.604 532.175 404.469 532.444C406.218 532.451 407.969 532.437 409.719 532.444C413.218 532.457 421.312 531.836 433.969 530.538C440.297 529.889 446.609 529.25 452.937 528.601C447.413 530.195 441.9 531.788 436.375 533.381C425.326 536.569 417.513 538.148 412.938 538.131C408.361 538.113 403.789 537.4 399.219 536.037C394.648 534.674 392.209 534.281 391.938 534.819C391.802 535.087 391.667 535.362 391.531 535.631C393.817 536.178 396.12 536.709 398.406 537.256C400.692 537.803 402.963 538.365 405.25 538.912C404.575 539.313 403.894 539.698 403.219 540.099" fill="#000000" fill-rule="nonzero" opacity="0.998657" stroke="none"/>
<path d="M406.094 530.007C411.077 529.218 416.048 528.452 421.031 527.664C430.997 526.087 437.34 525.416 440.031 525.695C441.377 525.835 442.717 525.993 444.062 526.132C443.525 525.861 443.006 525.591 442.469 525.32C441.931 525.049 441.381 524.779 440.844 524.508C442.727 524.649 444.616 524.772 446.5 524.914C448.384 525.056 450.272 525.21 452.156 525.351C450.539 525.883 448.898 526.413 447.281 526.945C444.047 528.009 436.396 528.796 424.281 529.288" fill="#000000" fill-rule="nonzero" opacity="0.998657" stroke="none"/>
</g>
</g>
</g>
</svg>
