<?xml version="1.0" encoding="UTF-8" standalone="no"?>
<!DOCTYPE svg PUBLIC "-//W3C//DTD SVG 1.1//EN" "http://www.w3.org/Graphics/SVG/1.1/DTD/svg11.dtd">
<!-- Created with Vectornator (http://vectornator.io/) -->
<svg height="100%" stroke-miterlimit="10" style="fill-rule:nonzero;clip-rule:evenodd;stroke-linecap:round;stroke-linejoin:round;" version="1.1" viewBox="278.497 557.294 135.724 93.7808" width="100%" xml:space="preserve" xmlns="http://www.w3.org/2000/svg" xmlns:vectornator="http://vectornator.io" xmlns:xlink="http://www.w3.org/1999/xlink">
<defs/>
<g id="Layer">
<g opacity="1">
<g opacity="1">
<path d="M376.997 605.245C373.364 605.528 369.724 605.806 366.091 606.089C358.825 606.655 342.55 606.856 317.247 606.683C291.943 606.51 279.138 606.812 278.872 607.62C278.739 608.025 278.63 608.435 278.497 608.839C280.248 609.236 281.996 609.629 283.747 610.027C287.249 610.821 290.088 611.876 292.247 613.214C293.326 613.883 294.386 614.576 295.466 615.245C295.197 615.381 294.922 615.516 294.653 615.652C294.116 615.923 292.78 615.364 290.622 614.027C288.463 612.689 286.443 612.051 284.559 612.058C282.675 612.065 281.608 612.331 281.341 612.87C281.207 613.14 281.068 613.413 280.934 613.683C282.551 614.08 284.161 614.473 285.778 614.87C287.395 615.268 289.005 615.66 290.622 616.058C289.412 616.466 288.207 616.868 286.997 617.277C285.787 617.685 284.582 618.087 283.372 618.495C285.256 618.354 287.144 618.231 289.028 618.089C292.795 617.806 295.469 618.449 297.091 620.058C298.712 621.667 300.631 625.7 302.809 632.152C303.898 635.378 304.97 638.613 306.059 641.839C307.936 639.813 309.808 637.803 311.684 635.777C315.437 631.725 321.228 628.859 329.028 627.214C332.928 626.392 336.816 625.568 340.716 624.745C340.179 625.151 339.659 625.558 339.122 625.964C338.048 626.776 334.402 627.739 328.216 628.839C322.029 629.939 318.413 631.04 317.341 632.12C316.268 633.201 315.876 634.675 316.153 636.558C316.429 638.441 317.645 640.855 319.809 643.808C321.974 646.761 324.266 647.706 326.684 646.62C327.893 646.077 329.1 645.507 330.309 644.964C329.504 645.505 328.708 646.048 327.903 646.589C326.292 647.672 325.599 648.626 325.872 649.433C326.144 650.239 326.689 650.655 327.497 650.652C328.304 650.648 329.376 649.834 330.716 648.214C331.385 647.404 332.076 646.587 332.747 645.777C332.342 645.509 331.933 645.232 331.528 644.964C331.123 644.696 330.714 644.45 330.309 644.183C331.25 643.775 332.181 643.34 333.122 642.933C335.003 642.118 336.765 640.655 338.372 638.495C339.979 636.336 341.306 633.91 342.372 631.214C343.438 628.518 343.969 626.772 343.966 625.964C343.962 625.157 343.418 624.604 342.341 624.339C341.802 624.206 341.254 624.065 340.716 623.933C344.745 621.764 348.78 619.601 352.809 617.433C360.868 613.095 366.795 610.399 370.559 609.308C374.324 608.217 376.324 607.241 376.591 606.433" fill="#000000" fill-rule="nonzero" opacity="0.998657" stroke="none"/>
<path d="M371.778 610.902C369.894 610.909 365.038 612.959 357.247 617.027C349.456 621.094 345.826 624.051 346.372 625.933C346.644 626.874 346.943 627.836 347.216 628.777C347.622 629.448 348.028 630.105 348.434 630.777C349.247 632.119 349.528 635.212 349.278 640.058C349.032 644.808 350.343 647.341 353.184 647.683C353.206 647.685 353.225 647.68 353.247 647.683C354.291 647.699 355.505 647.63 357.122 647.495C357.432 647.469 357.991 647.474 358.466 647.464C358.498 647.457 358.493 647.402 358.528 647.402C358.733 647.402 358.919 647.359 359.247 647.214C359.278 647.2 359.277 647.197 359.309 647.183C359.616 647.046 359.773 646.984 359.997 646.933C360.039 646.923 360.08 646.942 360.122 646.933C360.951 646.284 364.109 645.12 370.684 643.214C378.213 641.032 383.58 639.808 386.809 639.527C388.424 639.386 390.038 639.23 391.653 639.089C391.249 638.956 390.838 638.816 390.434 638.683C390.03 638.55 389.651 638.441 389.247 638.308C389.515 638.038 389.76 637.765 390.028 637.495C390.564 636.955 392.181 636.525 394.872 636.245C397.563 635.966 400.523 635.029 403.747 633.402C406.971 631.774 408.864 630.966 409.403 630.964C409.672 630.963 409.947 630.934 410.216 630.933C411.021 630.391 411.817 629.849 412.622 629.308C414.233 628.225 414.623 626.889 413.809 625.277C412.996 623.665 410.565 622.855 406.528 622.87C402.49 622.886 396.157 620.906 387.528 616.902C378.899 612.897 373.662 610.894 371.778 610.902Z" fill="#000000" fill-rule="nonzero" opacity="0.998657" stroke="none"/>
<path d="M347.216 628.777C346.677 628.779 346.129 628.774 345.591 628.777C344.514 628.781 343.576 630.113 342.778 632.808C341.981 635.503 340.379 638.063 337.966 640.495C335.552 642.927 333.815 645.244 332.747 647.402C332.212 648.48 331.656 649.541 331.122 650.62C331.661 650.753 332.208 650.894 332.747 651.027C333.824 651.292 336.51 650.458 340.809 648.558C345.109 646.657 347.529 644.651 348.059 642.495C348.589 640.34 348.579 637.493 348.028 633.995" fill="#000000" fill-rule="nonzero" opacity="0.998657" stroke="none"/>
</g>
<g opacity="1">
<path d="M376.997 603.114C373.364 602.831 369.724 602.553 366.091 602.27C358.825 601.704 342.55 601.504 317.247 601.677C291.943 601.849 279.138 601.548 278.872 600.739C278.739 600.335 278.63 599.925 278.497 599.521C280.248 599.124 281.996 598.73 283.747 598.333C287.249 597.539 290.088 596.484 292.247 595.147C293.326 594.478 294.386 593.785 295.466 593.116C295.197 592.98 294.922 592.845 294.653 592.71C294.116 592.438 292.78 592.997 290.622 594.334C288.463 595.672 286.443 596.31 284.559 596.303C282.675 596.296 281.608 596.03 281.341 595.49C281.207 595.221 281.068 594.948 280.934 594.678C282.551 594.28 284.161 593.888 285.778 593.491C287.395 593.093 289.005 592.701 290.622 592.303C289.412 591.895 288.207 591.493 286.997 591.085C285.787 590.677 284.582 590.275 283.372 589.866C285.256 590.008 287.144 590.131 289.028 590.273C292.795 590.556 295.469 589.913 297.091 588.304C298.712 586.696 300.631 582.664 302.809 576.213C303.898 572.988 304.97 569.753 306.059 566.527C307.936 568.553 309.808 570.563 311.684 572.589C315.437 576.64 321.228 579.505 329.028 581.149C332.928 581.972 336.816 582.796 340.716 583.618C340.179 583.212 339.659 582.805 339.122 582.399C338.048 581.588 334.402 580.625 328.216 579.525C322.029 578.425 318.413 577.325 317.341 576.244C316.268 575.164 315.876 573.69 316.153 571.808C316.429 569.925 317.645 567.511 319.809 564.559C321.974 561.607 324.266 560.662 326.684 561.747C327.893 562.29 329.1 562.86 330.309 563.403C329.504 562.862 328.708 562.32 327.903 561.778C326.292 560.696 325.599 559.742 325.872 558.935C326.144 558.129 326.689 557.714 327.497 557.717C328.304 557.72 329.376 558.534 330.716 560.154C331.385 560.964 332.076 561.781 332.747 562.591C332.342 562.858 331.933 563.136 331.528 563.403C331.123 563.671 330.714 563.917 330.309 564.184C331.25 564.591 332.181 565.027 333.122 565.434C335.003 566.248 336.765 567.711 338.372 569.871C339.979 572.03 341.306 574.455 342.372 577.15C343.438 579.846 343.969 581.592 343.966 582.399C343.962 583.207 343.418 583.759 342.341 584.024C341.802 584.156 341.254 584.298 340.716 584.43C344.745 586.598 348.78 588.76 352.809 590.929C360.868 595.265 366.795 597.961 370.559 599.052C374.324 600.143 376.324 601.118 376.591 601.927" fill="#000000" fill-rule="nonzero" opacity="0.998657" stroke="none"/>
<path d="M371.778 597.459C369.894 597.452 365.038 595.401 357.247 591.335C349.456 587.268 345.826 584.312 346.372 582.43C346.644 581.49 346.943 580.528 347.216 579.587C347.622 578.916 348.028 578.259 348.434 577.588C349.247 576.245 349.528 573.154 349.278 568.308C349.032 563.559 350.343 561.026 353.184 560.685C353.206 560.682 353.225 560.687 353.247 560.685C354.291 560.668 355.505 560.738 357.122 560.872C357.432 560.898 357.991 560.894 358.466 560.904C358.498 560.91 358.493 560.966 358.528 560.966C358.733 560.966 358.919 561.008 359.247 561.154C359.278 561.168 359.277 561.17 359.309 561.185C359.616 561.321 359.773 561.383 359.997 561.435C360.039 561.444 360.08 561.425 360.122 561.435C360.951 562.083 364.109 563.247 370.684 565.153C378.213 567.334 383.58 568.558 386.809 568.839C388.424 568.98 390.038 569.136 391.653 569.277C391.249 569.41 390.838 569.55 390.434 569.683C390.03 569.816 389.651 569.925 389.247 570.058C389.515 570.328 389.76 570.6 390.028 570.87C390.564 571.411 392.181 571.841 394.872 572.12C397.563 572.399 400.523 573.336 403.747 574.963C406.971 576.59 408.864 577.398 409.403 577.4C409.672 577.401 409.947 577.43 410.216 577.431C411.021 577.973 411.817 578.515 412.622 579.056C414.233 580.139 414.623 581.475 413.809 583.087C412.996 584.698 410.565 585.508 406.528 585.492C402.49 585.477 396.157 587.456 387.528 591.46C378.899 595.464 373.662 597.466 371.778 597.459Z" fill="#000000" fill-rule="nonzero" opacity="0.998657" stroke="none"/>
<path d="M347.216 579.587C346.677 579.585 346.129 579.589 345.591 579.587C344.514 579.583 343.576 578.251 342.778 575.557C341.981 572.863 340.379 570.302 337.966 567.871C335.552 565.44 333.815 563.123 332.747 560.966C332.212 559.888 331.656 558.827 331.122 557.748C331.661 557.615 332.208 557.474 332.747 557.342C333.824 557.077 336.51 557.91 340.809 559.81C345.109 561.71 347.529 563.716 348.059 565.871C348.589 568.026 348.579 570.873 348.028 574.37" fill="#000000" fill-rule="nonzero" opacity="0.998657" stroke="none"/>
</g>
</g>
</g>
</svg>
