<?xml version="1.0" encoding="UTF-8" standalone="no"?>
<!DOCTYPE svg PUBLIC "-//W3C//DTD SVG 1.1//EN" "http://www.w3.org/Graphics/SVG/1.1/DTD/svg11.dtd">
<!-- Created with Vectornator (http://vectornator.io/) -->
<svg height="100%" stroke-miterlimit="10" style="fill-rule:nonzero;clip-rule:evenodd;stroke-linecap:round;stroke-linejoin:round;" version="1.1" viewBox="555.656 561.677 93.7077 84.0746" width="100%" xml:space="preserve" xmlns="http://www.w3.org/2000/svg" xmlns:vectornator="http://vectornator.io" xmlns:xlink="http://www.w3.org/1999/xlink">
<defs/>
<g id="Layer">
<g opacity="1">
<g opacity="1">
<path d="M605.598 618.988C601.358 618.935 596.131 619.176 589.942 619.738C582.6 620.404 576.578 620.531 571.598 620.238C571.178 620.496 570.775 620.738 570.629 620.831C569.765 621.381 567.663 623.054 567.629 623.081C566.91 623.655 566.601 623.751 566.067 624.144C565.819 624.325 565.563 624.494 565.317 624.675C563.84 625.757 562.355 626.843 560.879 627.925C561.285 628.462 561.692 628.982 562.098 629.519C562.909 630.592 571.141 631.246 586.754 631.456C602.367 631.666 610.848 631.5 612.192 630.956C613.535 630.413 614.992 628.916 616.598 626.488C618.204 624.059 619.553 622.698 620.629 622.425C621.167 622.288 621.717 622.155 622.254 622.019C619.963 621.355 617.67 620.714 615.379 620.05C613.089 619.386 609.837 619.04 605.598 618.988Z" fill="#000000" fill-rule="nonzero" opacity="0.998657" stroke="none"/>
<path d="M582.723 631.863C570.341 631.91 562.647 632.63 559.692 633.988C556.736 635.345 555.418 636.537 555.692 637.613C555.928 638.542 556.991 639.469 558.629 640.394C558.963 640.539 559.154 640.667 559.567 640.831C559.605 640.847 559.59 640.847 559.629 640.863C561.015 641.413 561.636 641.706 562.348 642.144C563.334 642.751 564.25 643.59 565.379 644.644C583.653 646.216 596.557 646.128 603.754 644.3C611.284 642.387 619.362 641.015 627.973 640.175C632.278 639.755 636.574 639.345 640.879 638.925C640.743 638.656 640.609 638.381 640.473 638.113C640.337 637.844 640.203 637.569 640.067 637.3C641.545 636.756 643.026 636.219 644.504 635.675C645.982 635.131 647.463 634.594 648.942 634.05C643.293 635.148 637.653 636.233 632.004 637.331C620.707 639.528 614.357 639.679 613.004 637.8C611.651 635.921 609.363 634.458 606.129 633.394C602.895 632.329 595.105 631.815 582.723 631.863Z" fill="#000000" fill-rule="nonzero" opacity="0.998657" stroke="none"/>
</g>
<g opacity="1">
<path d="M606.02 588.44C601.781 588.493 596.553 588.252 590.364 587.69C583.023 587.024 577 586.897 572.02 587.19C571.6 586.931 571.197 586.689 571.051 586.597C570.187 586.047 568.085 584.374 568.051 584.347C567.332 583.773 567.023 583.677 566.489 583.284C566.242 583.103 565.986 582.934 565.739 582.753C564.263 581.671 562.778 580.586 561.301 579.503C561.707 578.967 562.114 578.446 562.52 577.91C563.332 576.836 571.563 576.182 587.176 575.972C602.79 575.762 611.27 575.929 612.614 576.472C613.958 577.016 615.414 578.512 617.02 580.941C618.626 583.369 619.976 584.73 621.051 585.003C621.589 585.14 622.139 585.273 622.676 585.409C620.386 586.073 618.092 586.714 615.801 587.378C613.511 588.042 610.26 588.388 606.02 588.44Z" fill="#000000" fill-rule="nonzero" opacity="0.998657" stroke="none"/>
<path d="M583.145 575.566C570.763 575.519 563.07 574.798 560.114 573.441C557.158 572.084 555.84 570.892 556.114 569.816C556.35 568.887 557.414 567.959 559.051 567.035C559.385 566.89 559.576 566.762 559.989 566.598C560.028 566.582 560.013 566.582 560.051 566.567C561.437 566.016 562.058 565.723 562.77 565.285C563.757 564.678 564.672 563.839 565.801 562.785C584.075 561.214 596.979 561.301 604.176 563.129C611.706 565.042 619.785 566.414 628.395 567.254C632.7 567.674 636.996 568.084 641.301 568.504C641.166 568.773 641.031 569.048 640.895 569.316C640.76 569.585 640.625 569.86 640.489 570.129C641.967 570.673 643.448 571.21 644.926 571.754C646.405 572.298 647.885 572.835 649.364 573.379C643.715 572.281 638.076 571.196 632.426 570.098C621.129 567.901 614.779 567.75 613.426 569.629C612.073 571.508 609.785 572.971 606.551 574.035C603.317 575.099 595.527 575.613 583.145 575.566Z" fill="#000000" fill-rule="nonzero" opacity="0.998657" stroke="none"/>
</g>
</g>
</g>
</svg>
