<?xml version="1.0" encoding="UTF-8" standalone="no"?>
<!DOCTYPE svg PUBLIC "-//W3C//DTD SVG 1.1//EN" "http://www.w3.org/Graphics/SVG/1.1/DTD/svg11.dtd">
<!-- Created with Vectornator (http://vectornator.io/) -->
<svg height="100%" stroke-miterlimit="10" style="fill-rule:nonzero;clip-rule:evenodd;stroke-linecap:round;stroke-linejoin:round;" version="1.1" viewBox="306.499 539.943 42.7825 129.066" width="100%" xml:space="preserve" xmlns="http://www.w3.org/2000/svg" xmlns:vectornator="http://vectornator.io" xmlns:xlink="http://www.w3.org/1999/xlink">
<defs/>
<g id="Layer">
<g opacity="1">
<path d="M314.156 641.513C313.35 641.785 312.409 643.423 311.344 646.388C310.811 647.871 310.283 649.343 309.75 650.826C309.478 650.019 309.179 649.226 308.906 648.42C308.634 647.613 308.366 646.789 308.094 645.982C307.961 646.386 307.821 646.796 307.688 647.201C307.421 648.009 308.119 650.419 309.75 654.451C311.38 658.482 312.868 661.172 314.219 662.513C315.57 663.854 317.722 665.21 320.688 666.545C323.654 667.879 327.971 668.641 333.625 668.888C339.279 669.136 344.257 669.005 348.562 668.451C348.792 668.421 349.05 668.445 349.281 668.42C349.039 668.185 348.974 668.021 348.594 667.701C348.557 667.67 348.569 667.67 348.531 667.638C348.24 667.393 348.109 667.267 347.938 667.107C346.652 666.781 344.349 664.879 340.875 661.201C336.821 656.909 332.898 654.232 329.125 653.17C325.352 652.107 322.111 649.846 319.406 646.357C316.701 642.868 314.962 641.241 314.156 641.513Z" fill="#000000" fill-rule="nonzero" opacity="0.998657" stroke="none"/>
<path d="M313.069 567.63C312.26 567.364 311.307 565.733 310.22 562.776C309.676 561.297 309.136 559.829 308.592 558.35C308.326 559.159 308.033 559.955 307.767 560.763C307.501 561.572 307.239 562.398 306.973 563.207C306.837 562.804 306.693 562.395 306.557 561.991C306.285 561.185 306.965 558.769 308.565 554.725C310.164 550.681 311.631 547.98 312.972 546.629C314.313 545.277 316.454 543.905 319.41 542.548C322.365 541.191 326.677 540.396 332.329 540.106C337.981 539.815 342.96 539.908 347.269 540.43C347.499 540.457 347.757 540.431 347.988 540.455C347.748 540.692 347.684 540.856 347.306 541.179C347.269 541.211 347.281 541.211 347.244 541.242C346.955 541.49 346.825 541.617 346.655 541.778C345.372 542.113 343.083 544.033 339.637 547.738C335.616 552.061 331.713 554.768 327.949 555.859C324.184 556.95 320.961 559.236 318.282 562.746C315.604 566.256 313.877 567.896 313.069 567.63Z" fill="#000000" fill-rule="nonzero" opacity="0.998657" stroke="none"/>
</g>
</g>
</svg>
