<?xml version="1.0" encoding="UTF-8" standalone="no"?>
<!DOCTYPE svg PUBLIC "-//W3C//DTD SVG 1.1//EN" "http://www.w3.org/Graphics/SVG/1.1/DTD/svg11.dtd">
<!-- Created with Vectornator (http://vectornator.io/) -->
<svg height="100%" stroke-miterlimit="10" style="fill-rule:nonzero;clip-rule:evenodd;stroke-linecap:round;stroke-linejoin:round;" version="1.1" viewBox="463.625 557.294 107.375 93.7808" width="100%" xml:space="preserve" xmlns="http://www.w3.org/2000/svg" xmlns:vectornator="http://vectornator.io" xmlns:xlink="http://www.w3.org/1999/xlink">
<defs/>
<g id="Layer">
<g opacity="1">
<path d="M482.312 607.399C481.371 607.537 480.441 607.667 479.5 607.805C480.048 610.226 480.609 612.635 481.156 615.055C482.155 619.47 483.382 621.766 484.812 622.149C485.821 622.144 486.645 622.113 487.375 621.93C487.422 621.918 487.422 621.911 487.469 621.899C488.5 621.628 489.502 621.192 491.094 620.368C491.254 620.284 492.403 619.697 492.625 619.586C495.555 618.121 499.712 616.863 503.906 616.024C506.302 615.545 512.626 615.181 512.656 615.18C516.324 615.025 517.947 614.924 519.937 614.618C520.676 614.504 521.568 614.218 522.594 613.836C520.839 613.515 518.982 613.191 518.687 612.899C517.877 612.094 512.086 610.91 501.312 609.336C490.539 607.762 484.195 607.123 482.312 607.399Z" fill="#000000" fill-rule="nonzero" opacity="0.998657" stroke="none"/>
<path d="M524.406 614.211C523.997 614.375 523.407 614.612 523.312 614.649C522.006 615.155 521.025 615.443 520.094 615.586C518.054 615.9 512.687 616.179 512.656 616.18C509.807 616.301 508.546 616.511 506.969 616.711C505.048 617.024 503.047 617.317 501.344 617.711C499.56 618.124 498.078 618.65 496.531 619.149C495.312 619.586 494.034 620.007 493.062 620.493C492.846 620.601 491.724 621.19 491.562 621.274C489.909 622.13 488.872 622.573 487.75 622.868C487.697 622.881 487.678 622.886 487.625 622.899C486.919 623.075 486.094 623.096 485.219 623.118C483.606 623.662 482.809 624.341 482.812 625.149C482.816 625.956 488.198 626.863 498.969 627.899C502.823 628.27 506.677 628.651 510.531 629.024C511.176 628.992 511.759 628.952 512.25 628.993C513.644 629.109 514.812 629.251 517.156 629.618C517.229 629.629 518.845 629.877 519.437 629.961C520.383 630.096 521.201 630.085 522.937 629.961C524.283 629.865 525.764 629.981 527.562 630.274C528.332 630.399 529.071 630.541 530.219 630.774C531.032 630.939 530.985 630.93 531.312 630.993C531.572 631.006 531.834 631.01 532.094 631.024C541.786 631.525 549.723 630.67 555.906 628.493C558.549 627.562 561.175 626.639 563.812 625.711C564.086 625.577 564.455 625.238 564.719 625.086C564.063 624.865 563.41 624.648 562.75 624.43C561.941 624.164 561.121 623.915 560.312 623.649C562.061 623.373 563.814 623.081 565.562 622.805C566.645 622.634 567.729 622.471 568.812 622.305C569.644 621.653 570.362 621.093 571 620.68C568.305 620.45 565.858 620.127 563.937 619.586C558.279 617.993 549.535 616.68 537.687 615.649C531.913 615.146 527.562 614.659 524.406 614.211Z" fill="#000000" fill-rule="nonzero" opacity="0.998657" stroke="none"/>
<path d="M485.625 628.68C484.011 628.753 483.079 629.047 482.812 629.586C482.278 630.665 482.542 632.144 483.625 634.024C484.709 635.904 487.027 637.504 490.531 638.836C493.579 639.995 500.861 640.781 511.031 641.305C512.095 641.321 512.437 641.386 513.844 641.399C516.988 641.427 518.375 641.464 520.125 641.524C520.926 641.551 521.696 641.576 522.437 641.618C523.57 641.681 524.494 641.706 526.594 641.711C527.368 641.713 527.694 641.707 528.125 641.711C530.572 641.735 532.146 641.991 533.812 642.274C533.907 642.277 534 642.302 534.094 642.305C534.547 642.387 535.215 642.351 535.656 642.461C536.794 642.746 539.427 643.988 539.437 643.993C539.481 644.015 539.489 644.003 539.531 644.024C547.104 643.917 555.207 644.212 564.031 645.024C564.28 645.047 564.472 645.064 564.719 645.086C564.144 644.607 563.462 643.916 562.875 643.555C562.664 643.425 562.258 643.295 562.031 643.18C560.874 642.991 557.667 641.502 551.5 638.211C546.338 635.457 540.942 633.548 535.344 632.399C534.517 632.369 533.346 632.396 532.656 632.274C531.985 632.155 531.992 632.14 530.031 631.743C528.895 631.512 528.16 631.397 527.406 631.274C525.677 630.992 524.255 630.872 523 630.961C521.193 631.09 520.321 631.11 519.281 630.961C518.683 630.876 517.072 630.629 517 630.618C514.679 630.254 513.55 630.075 512.187 629.961C511.594 629.912 511.115 629.948 510.031 630.024C508.901 630.103 508.392 630.109 507.75 630.055C507.464 630.031 506.949 629.96 506.375 629.899C502.232 630.03 497.671 629.834 492.5 629.149C489.538 628.756 487.239 628.607 485.625 628.68Z" fill="#000000" fill-rule="nonzero" opacity="0.998657" stroke="none"/>
<path d="M512.75 642.399C498.215 642.454 489.045 643.027 485.281 644.118C481.517 645.209 477.63 645.896 473.594 646.18C469.557 646.465 467.149 647.026 466.344 647.836C465.942 648.242 465.528 648.619 465.125 649.024C468.087 649.416 471.038 649.819 474 650.211C479.925 650.996 484.794 651.245 488.562 650.961C492.33 650.678 500.926 649.173 514.375 646.43C521.09 645.06 528.581 644.26 536.844 644.024C536.425 643.862 535.827 643.535 535.406 643.43C533.375 642.922 531.293 642.742 528.125 642.711C527.697 642.707 527.365 642.713 526.594 642.711C524.477 642.706 523.532 642.682 522.375 642.618C521.641 642.577 520.888 642.551 520.094 642.524C518.355 642.465 516.948 642.427 513.812 642.399C513.75 642.398 513.749 642.399 513.687 642.399C513.375 642.4 513.063 642.398 512.75 642.399Z" fill="#000000" fill-rule="nonzero" opacity="0.998657" stroke="none"/>
<g opacity="1">
<path d="M480.812 600.971C479.871 600.833 478.941 600.703 478 600.565C478.548 598.144 479.109 595.735 479.656 593.315C480.655 588.9 481.882 586.604 483.312 586.221C484.321 586.226 485.145 586.257 485.875 586.439C485.922 586.451 485.922 586.458 485.969 586.471C487 586.741 488.002 587.178 489.594 588.002C489.754 588.085 490.903 588.672 491.125 588.783C494.055 590.248 498.212 591.507 502.406 592.346C504.802 592.825 511.126 593.188 511.156 593.19C514.824 593.345 516.447 593.446 518.437 593.752C519.176 593.866 520.068 594.152 521.094 594.534C519.339 594.855 517.482 595.179 517.188 595.471C516.377 596.276 510.586 597.46 499.812 599.034C489.039 600.608 482.695 601.248 480.812 600.971Z" fill="#000000" fill-rule="nonzero" opacity="0.998657" stroke="none"/>
<path d="M522.906 594.159C522.497 593.995 521.907 593.758 521.812 593.721C520.506 593.215 519.525 592.927 518.594 592.784C516.554 592.47 511.187 592.191 511.156 592.19C508.307 592.069 507.046 591.859 505.469 591.658C503.548 591.346 501.547 591.053 499.844 590.658C498.06 590.246 496.578 589.72 495.031 589.221C493.812 588.784 492.534 588.363 491.562 587.877C491.346 587.769 490.224 587.18 490.062 587.096C488.409 586.239 487.372 585.796 486.25 585.502C486.197 585.488 486.178 585.484 486.125 585.471C485.419 585.294 484.594 585.274 483.719 585.252C482.106 584.707 481.309 584.028 481.312 583.221C481.316 582.413 486.698 581.506 497.469 580.47C501.323 580.1 505.177 579.719 509.031 579.345C509.676 579.377 510.259 579.418 510.75 579.377C512.144 579.26 513.312 579.119 515.656 578.752C515.729 578.74 517.345 578.493 517.938 578.408C518.883 578.273 519.701 578.284 521.438 578.408C522.783 578.504 524.264 578.388 526.062 578.095C526.832 577.97 527.571 577.828 528.719 577.595C529.532 577.431 529.485 577.439 529.812 577.377C530.072 577.363 530.334 577.359 530.594 577.345C540.286 576.844 548.223 577.7 554.406 579.877C557.049 580.807 559.675 581.731 562.312 582.658C562.586 582.792 562.955 583.131 563.219 583.283C562.563 583.504 561.91 583.722 561.25 583.939C560.441 584.206 559.621 584.455 558.812 584.721C560.561 584.996 562.314 585.288 564.062 585.564C565.145 585.735 566.229 585.898 567.312 586.064C568.144 586.717 568.862 587.277 569.5 587.69C566.805 587.92 564.358 588.243 562.437 588.783C556.779 590.377 548.035 591.689 536.188 592.721C530.413 593.224 526.062 593.711 522.906 594.159Z" fill="#000000" fill-rule="nonzero" opacity="0.998657" stroke="none"/>
<path d="M484.125 579.689C482.511 579.617 481.579 579.322 481.312 578.783C480.778 577.704 481.042 576.225 482.125 574.345C483.209 572.465 485.527 570.865 489.031 569.533C492.079 568.373 499.361 567.588 509.531 567.064C510.595 567.048 510.937 566.983 512.344 566.97C515.488 566.942 516.875 566.904 518.625 566.845C519.426 566.818 520.196 566.792 520.938 566.751C522.07 566.688 522.994 566.663 525.094 566.657C525.868 566.655 526.194 566.661 526.625 566.657C529.072 566.634 530.646 566.378 532.312 566.095C532.407 566.091 532.5 566.067 532.594 566.064C533.047 565.981 533.715 566.018 534.156 565.907C535.294 565.623 537.927 564.381 537.938 564.376C537.981 564.354 537.989 564.366 538.031 564.345C545.604 564.451 553.707 564.157 562.531 563.345C562.78 563.322 562.972 563.305 563.219 563.282C562.644 563.762 561.962 564.453 561.375 564.814C561.164 564.943 560.758 565.074 560.531 565.189C559.374 565.378 556.167 566.867 550 570.158C544.838 572.912 539.442 574.821 533.844 575.97C533.017 576 531.846 575.974 531.156 576.095C530.485 576.214 530.492 576.229 528.531 576.627C527.395 576.857 526.66 576.973 525.906 577.095C524.177 577.377 522.755 577.498 521.5 577.408C519.693 577.279 518.821 577.259 517.781 577.408C517.183 577.493 515.572 577.74 515.5 577.752C513.179 578.115 512.05 578.294 510.687 578.408C510.094 578.457 509.615 578.421 508.531 578.345C507.401 578.267 506.892 578.261 506.25 578.314C505.964 578.338 505.449 578.409 504.875 578.47C500.732 578.34 496.171 578.535 491 579.22C488.038 579.613 485.739 579.762 484.125 579.689Z" fill="#000000" fill-rule="nonzero" opacity="0.998657" stroke="none"/>
<path d="M511.25 565.97C496.715 565.915 487.545 565.342 483.781 564.251C480.017 563.16 476.13 562.473 472.094 562.188C468.057 561.904 465.649 561.343 464.844 560.532C464.442 560.127 464.028 559.75 463.625 559.345C466.587 558.952 469.538 558.549 472.5 558.157C478.425 557.372 483.294 557.123 487.062 557.407C490.83 557.691 499.426 559.195 512.875 561.938C519.59 563.308 527.081 564.109 535.344 564.345C534.925 564.507 534.327 564.833 533.906 564.939C531.875 565.446 529.793 565.627 526.625 565.657C526.197 565.661 525.865 565.655 525.094 565.657C522.977 565.663 522.032 565.687 520.875 565.751C520.141 565.792 519.388 565.818 518.594 565.845C516.855 565.904 515.448 565.942 512.312 565.97C512.25 565.97 512.249 565.969 512.188 565.97C511.875 565.969 511.563 565.971 511.25 565.97Z" fill="#000000" fill-rule="nonzero" opacity="0.998657" stroke="none"/>
</g>
<path d="M506.007 621.945C508.428 621.667 511.651 622.177 515.694 623.508C517.715 624.173 519.735 624.843 521.757 625.508C518.525 624.982 515.301 624.471 512.069 623.945C508.837 623.419 505.583 622.878 502.35 622.352" fill="#000000" fill-rule="nonzero" opacity="0.998657" stroke="none"/>
</g>
</g>
</svg>
