<?xml version="1.0" encoding="UTF-8" standalone="no"?>
<!DOCTYPE svg PUBLIC "-//W3C//DTD SVG 1.1//EN" "http://www.w3.org/Graphics/SVG/1.1/DTD/svg11.dtd">
<!-- Created with Vectornator (http://vectornator.io/) -->
<svg height="100%" stroke-miterlimit="10" style="fill-rule:nonzero;clip-rule:evenodd;stroke-linecap:round;stroke-linejoin:round;" version="1.1" viewBox="378.703 565.629 54.9375 77.0867" width="100%" xml:space="preserve" xmlns="http://www.w3.org/2000/svg" xmlns:vectornator="http://vectornator.io" xmlns:xlink="http://www.w3.org/1999/xlink">
<defs/>
<g id="Layer">
<g opacity="1">
<path d="M417.391 582.934C416.314 582.938 415.107 583.614 413.766 584.965C412.425 586.316 409.878 587.014 406.11 587.028C402.341 587.042 399.111 587.46 396.422 588.278C393.733 589.096 390.633 590.443 387.141 592.34C383.649 594.238 381.366 596.277 380.297 598.434C379.763 599.513 379.238 600.574 378.703 601.653C387.855 601.618 397.02 601.594 406.172 601.559C415.324 601.524 424.458 601.469 433.61 601.434C433.608 601.165 433.611 600.922 433.61 600.653C433.607 600.115 431.598 598.106 427.547 594.622C423.496 591.138 421.05 588.303 420.235 586.153" fill="#000000" fill-rule="nonzero" opacity="0.998657" stroke="none"/>
<path d="M381.641 606.278C380.497 606.417 379.814 606.77 379.547 607.309C379.013 608.388 379.413 609.731 380.766 611.34C382.118 612.95 384.267 614.549 387.235 616.153C390.202 617.757 393.45 619.09 396.953 620.153C400.457 621.216 403.543 621.62 406.235 621.34C408.925 621.061 411.767 621.705 414.735 623.309C416.218 624.111 417.689 624.914 419.172 625.715C419.705 624.368 420.233 623.032 420.766 621.684C421.832 618.988 423.706 616.704 426.391 614.809C429.075 612.915 430.976 611.147 432.047 609.528C432.582 608.718 433.105 607.9 433.641 607.09C426.777 607.117 419.911 607.158 413.047 607.184C399.319 607.236 390.431 606.989 386.391 606.465" fill="#000000" fill-rule="nonzero" opacity="0.998657" stroke="none"/>
<path d="M410.328 631.403C409.926 631.674 409.512 631.945 409.11 632.215C408.304 632.757 408.161 633.578 408.703 634.653C408.975 635.19 409.245 635.741 409.516 636.278C408.842 636.011 408.189 635.732 407.516 635.465C406.168 634.932 403.592 635.355 399.828 636.715C397.947 637.396 396.085 638.067 394.203 638.747C397.301 639.408 400.387 640.054 403.485 640.715C409.681 642.038 413.589 642.722 415.203 642.715C416.011 642.712 416.802 642.687 417.61 642.684C417.608 642.415 417.611 642.141 417.61 641.872C417.608 641.603 417.611 641.36 417.61 641.09C416.261 640.423 414.926 639.758 413.578 639.09C412.23 638.423 410.864 637.727 409.516 637.059C409.784 636.924 410.059 636.789 410.328 636.653C410.866 636.382 412.231 637.046 414.391 638.653C415.471 639.456 416.529 640.287 417.61 641.09C417.879 641.089 418.153 641.091 418.422 641.09C418.691 641.089 418.966 641.06 419.235 641.059C419.101 641.329 418.962 641.602 418.828 641.872C418.695 642.141 418.555 642.415 418.422 642.684C419.229 642.547 420.053 642.416 420.86 642.278C421.667 642.14 422.459 642.009 423.266 641.872C422.451 639.856 421.643 637.825 420.828 635.809C419.198 631.778 417.981 629.638 417.172 629.372C416.363 629.106 415.022 629.369 413.141 630.184" fill="#000000" fill-rule="nonzero" opacity="0.998657" stroke="none"/>
<path d="M411.442 576.979C411.037 576.712 410.622 576.444 410.217 576.176C409.407 575.641 409.257 574.82 409.792 573.742C410.059 573.202 410.325 572.65 410.592 572.11C409.92 572.382 409.27 572.666 408.598 572.938C407.254 573.482 404.675 573.078 400.901 571.746C399.015 571.081 397.148 570.424 395.261 569.758C398.354 569.073 401.434 568.403 404.527 567.718C410.713 566.349 414.616 565.635 416.23 565.629C417.038 565.626 417.829 565.645 418.637 565.642C418.638 565.911 418.642 566.185 418.643 566.455C418.644 566.724 418.648 566.967 418.649 567.236C417.306 567.914 415.976 568.589 414.633 569.267C413.29 569.945 411.929 570.651 410.586 571.329C410.856 571.463 411.131 571.595 411.402 571.729C411.941 571.996 413.302 571.321 415.449 569.698C416.522 568.886 417.575 568.048 418.649 567.236C418.918 567.235 419.192 567.231 419.461 567.23C419.731 567.229 420.005 567.256 420.274 567.255C420.139 566.986 419.997 566.714 419.862 566.445C419.726 566.177 419.585 565.905 419.449 565.636C420.257 565.767 421.082 565.892 421.89 566.024C422.698 566.155 423.491 566.28 424.299 566.412C423.499 568.434 422.707 570.471 421.908 572.493C420.308 576.537 419.107 578.687 418.301 578.959C417.494 579.231 416.151 578.977 414.263 578.177" fill="#000000" fill-rule="nonzero" opacity="0.998657" stroke="none"/>
</g>
</g>
</svg>
