<?xml version="1.0" encoding="UTF-8" standalone="no"?>
<!DOCTYPE svg PUBLIC "-//W3C//DTD SVG 1.1//EN" "http://www.w3.org/Graphics/SVG/1.1/DTD/svg11.dtd">
<!-- Created with Vectornator (http://vectornator.io/) -->
<svg height="100%" stroke-miterlimit="10" style="fill-rule:nonzero;clip-rule:evenodd;stroke-linecap:round;stroke-linejoin:round;" version="1.1" viewBox="335.632 539.943 54.9195 129.066" width="100%" xml:space="preserve" xmlns="http://www.w3.org/2000/svg" xmlns:vectornator="http://vectornator.io" xmlns:xlink="http://www.w3.org/1999/xlink">
<defs/>
<g id="Layer">
<g opacity="1">
<g opacity="1">
<path d="M362.386 648.457C362.181 648.496 361.833 648.555 361.636 648.582C361.102 648.653 360.578 648.688 359.792 648.707C359.621 648.711 359.618 648.703 359.448 648.707C358.667 648.723 358.338 648.734 357.917 648.769C355.2 648.996 353.565 648.968 352.042 648.738C351.626 648.762 351.207 648.777 350.792 648.8C345.679 649.089 342.205 649.642 340.323 650.457C338.442 651.271 337.509 651.95 337.511 652.488C337.513 653.026 339.664 654.519 343.979 656.925C348.295 659.332 351.512 660.802 353.667 661.332C355.822 661.862 362.305 662.228 373.073 662.457C383.841 662.685 389.474 662.528 390.011 661.988C390.547 661.448 390.689 660.763 390.417 659.957C390.145 659.15 387.72 657.686 383.136 655.55C380.844 654.482 378.553 653.431 376.261 652.363C376.663 652.092 377.076 651.821 377.479 651.55C377.882 651.28 378.264 651.009 378.667 650.738C375.57 650.346 372.483 649.942 369.386 649.55C366.252 649.154 363.931 648.795 362.386 648.457Z" fill="#000000" fill-rule="nonzero" opacity="0.998657" stroke="none"/>
<path d="M344.792 658.925C344.794 659.329 344.79 659.74 344.792 660.144C344.795 660.952 345.882 662.162 348.042 663.769C349.122 664.573 350.212 665.372 351.292 666.175C351.148 666.212 350.999 666.233 350.854 666.269C351.044 666.438 351.196 666.548 351.448 666.8C351.529 666.881 351.883 667.333 352.167 667.675C355.795 667.424 359.622 667.502 363.792 668.144C368.909 668.932 373.506 669.179 377.542 668.894C381.579 668.61 383.575 668.214 383.573 667.675C383.571 667.137 382.647 666.582 380.761 666.05C378.874 665.519 373.87 664.858 365.792 664.082C357.714 663.305 352.469 662.262 350.042 660.925C347.614 659.589 346.143 658.923 345.604 658.925C345.335 658.926 345.061 658.924 344.792 658.925Z" fill="#000000" fill-rule="nonzero" opacity="0.998657" stroke="none"/>
</g>
<g opacity="1">
<path d="M360.507 560.493C360.302 560.453 359.954 560.394 359.757 560.368C359.223 560.297 358.7 560.261 357.914 560.243C357.743 560.239 357.74 560.246 357.57 560.243C356.789 560.226 356.459 560.215 356.039 560.18C353.322 559.954 351.686 559.981 350.164 560.212C349.747 560.188 349.329 560.172 348.914 560.149C343.8 559.86 340.326 559.308 338.445 558.493C336.564 557.678 335.631 557 335.632 556.462C335.634 555.924 337.785 554.431 342.101 552.025C346.417 549.619 349.634 548.149 351.789 547.619C353.944 547.089 360.426 546.722 371.195 546.494C381.963 546.266 387.596 546.422 388.132 546.963C388.669 547.503 388.811 548.187 388.539 548.994C388.266 549.8 385.842 551.264 381.257 553.4C378.965 554.468 376.675 555.519 374.382 556.587C374.785 556.858 375.198 557.128 375.601 557.399C376.004 557.67 376.386 557.941 376.789 558.212C373.692 558.604 370.605 559.007 367.507 559.399C364.374 559.796 362.053 560.155 360.507 560.493Z" fill="#000000" fill-rule="nonzero" opacity="0.998657" stroke="none"/>
<path d="M342.914 550.025C342.915 549.621 342.912 549.21 342.914 548.806C342.917 547.999 344.004 546.788 346.164 545.182C347.243 544.378 348.334 543.579 349.414 542.775C349.27 542.739 349.121 542.718 348.976 542.682C349.165 542.512 349.318 542.403 349.57 542.151C349.651 542.07 350.005 541.618 350.289 541.276C353.917 541.526 357.744 541.449 361.914 540.807C367.031 540.019 371.627 539.772 375.664 540.057C379.7 540.341 381.696 540.737 381.695 541.276C381.693 541.814 380.769 542.369 378.882 542.9C376.996 543.432 371.992 544.092 363.914 544.869C355.835 545.646 350.591 546.688 348.164 548.025C345.736 549.362 344.265 550.027 343.726 550.025C343.457 550.024 343.182 550.026 342.914 550.025Z" fill="#000000" fill-rule="nonzero" opacity="0.998657" stroke="none"/>
</g>
</g>
</g>
</svg>
