<svg width="65" height="64" viewBox="0 0 65 64" fill="none" xmlns="http://www.w3.org/2000/svg">
<path d="M32.5 13.3334C32.5031 12.2668 32.293 11.2104 31.8818 10.2262C31.4707 9.24201 30.867 8.34999 30.106 7.60257C29.3451 6.85516 28.4425 6.26745 27.4511 5.874C26.4597 5.48056 25.3997 5.28932 24.3333 5.31155C23.267 5.33378 22.2158 5.56902 21.2417 6.00343C20.2676 6.43784 19.3902 7.06266 18.6611 7.84113C17.932 8.6196 17.3659 9.53601 16.9961 10.5365C16.6264 11.5369 16.4604 12.6012 16.508 13.6667C14.9405 14.0698 13.4853 14.8242 12.2526 15.8729C11.0199 16.9216 10.042 18.237 9.39291 19.7196C8.74386 21.2022 8.44069 22.8131 8.50637 24.4302C8.57204 26.0473 9.00485 27.6283 9.77199 29.0534C8.42314 30.1492 7.36247 31.558 6.68223 33.1572C6.002 34.7564 5.72281 36.4976 5.86896 38.2294C6.01511 39.9611 6.58217 41.6309 7.52081 43.0934C8.45945 44.556 9.74123 45.7671 11.2547 46.6214C11.0678 48.0674 11.1793 49.5363 11.5824 50.9375C11.9854 52.3386 12.6715 53.6423 13.5981 54.7679C14.5247 55.8936 15.6723 56.8173 16.9699 57.4821C18.2675 58.1468 19.6877 58.5385 21.1426 58.6329C22.5975 58.7274 24.0564 58.5225 25.429 58.031C26.8017 57.5395 28.059 56.7719 29.1234 55.7754C30.1877 54.779 31.0365 53.5749 31.6172 52.2376C32.198 50.9002 32.4984 49.458 32.5 48.0001V13.3334Z" stroke="white" stroke-width="2" stroke-linecap="round" stroke-linejoin="round"/>
<path d="M24.5 34.6667C26.7388 33.8791 28.6938 32.4453 30.1178 30.5467C31.5418 28.648 32.3708 26.3698 32.5 24" stroke="white" stroke-width="2" stroke-linecap="round" stroke-linejoin="round"/>
<path d="M16.508 13.6666C16.5607 14.9566 16.9249 16.2146 17.5693 17.3333" stroke="white" stroke-width="2" stroke-linecap="round" stroke-linejoin="round"/>
<path d="M9.772 29.056C10.2598 28.6587 10.7819 28.3053 11.332 28" stroke="white" stroke-width="2" stroke-linecap="round" stroke-linejoin="round"/>
<path d="M16.5 48C14.6622 48.0009 12.8554 47.5269 11.2547 46.624" stroke="white" stroke-width="2" stroke-linecap="round" stroke-linejoin="round"/>
<path d="M32.5 34.6666H43.1667" stroke="white" stroke-width="2" stroke-linecap="round" stroke-linejoin="round"/>
<path d="M32.5 48H48.5C49.9145 48 51.271 48.5619 52.2712 49.5621C53.2714 50.5623 53.8333 51.9188 53.8333 53.3333V56" stroke="white" stroke-width="2" stroke-linecap="round" stroke-linejoin="round"/>
<path d="M32.5 21.3334H53.8333" stroke="white" stroke-width="2" stroke-linecap="round" stroke-linejoin="round"/>
<path d="M43.1667 21.3333V13.3333C43.1667 11.9188 43.7286 10.5623 44.7288 9.5621C45.729 8.5619 47.0855 8 48.5 8" stroke="white" stroke-width="2" stroke-linecap="round" stroke-linejoin="round"/>
<path d="M43.1667 36C43.903 36 44.5 35.4031 44.5 34.6667C44.5 33.9303 43.903 33.3334 43.1667 33.3334C42.4303 33.3334 41.8333 33.9303 41.8333 34.6667C41.8333 35.4031 42.4303 36 43.1667 36Z" stroke="white" stroke-width="2" stroke-linecap="round" stroke-linejoin="round"/>
<path d="M48.5 9.33329C49.2364 9.33329 49.8333 8.73634 49.8333 7.99996C49.8333 7.26358 49.2364 6.66663 48.5 6.66663C47.7636 6.66663 47.1667 7.26358 47.1667 7.99996C47.1667 8.73634 47.7636 9.33329 48.5 9.33329Z" stroke="white" stroke-width="2" stroke-linecap="round" stroke-linejoin="round"/>
<path d="M53.8333 57.3333C54.5697 57.3333 55.1667 56.7363 55.1667 56C55.1667 55.2636 54.5697 54.6666 53.8333 54.6666C53.097 54.6666 52.5 55.2636 52.5 56C52.5 56.7363 53.097 57.3333 53.8333 57.3333Z" stroke="white" stroke-width="2" stroke-linecap="round" stroke-linejoin="round"/>
<path d="M53.8333 22.6667C54.5697 22.6667 55.1667 22.0697 55.1667 21.3333C55.1667 20.597 54.5697 20 53.8333 20C53.097 20 52.5 20.597 52.5 21.3333C52.5 22.0697 53.097 22.6667 53.8333 22.6667Z" stroke="white" stroke-width="2" stroke-linecap="round" stroke-linejoin="round"/>
</svg>
