<?xml version="1.0" encoding="UTF-8" standalone="no"?>
<!DOCTYPE svg PUBLIC "-//W3C//DTD SVG 1.1//EN" "http://www.w3.org/Graphics/SVG/1.1/DTD/svg11.dtd">
<!-- Created with Vectornator (http://vectornator.io/) -->
<svg height="100%" stroke-miterlimit="10" style="fill-rule:nonzero;clip-rule:evenodd;stroke-linecap:round;stroke-linejoin:round;" version="1.1" viewBox="359.602 796.54 100.938 40.7652" width="100%" xml:space="preserve" xmlns="http://www.w3.org/2000/svg" xmlns:vectornator="http://vectornator.io" xmlns:xlink="http://www.w3.org/1999/xlink">
<defs/>
<g id="Layer">
<g opacity="1">
<path d="M372.82 796.54C368.244 796.558 365.289 796.809 363.945 797.353C362.602 797.896 361.41 800.597 360.352 805.446C359.293 810.296 359.987 813.254 362.414 814.321C364.841 815.389 367.106 815.786 369.258 815.509C371.41 815.231 373.175 813.494 374.508 810.259C375.842 807.024 377.445 804.189 379.32 801.759C380.258 800.544 381.196 799.317 382.133 798.103C381.728 797.835 381.319 797.558 380.914 797.29" fill="#000000" fill-rule="nonzero" opacity="0.998657" stroke="none"/>
<path d="M406.352 796.79C405.275 796.794 403.935 796.952 402.32 797.228C399.092 797.778 397.056 799.408 396.258 802.103C395.461 804.797 395.09 807.61 395.102 810.571C395.113 813.532 397.263 815.131 401.57 815.384C405.878 815.637 408.56 815.383 409.633 814.571C410.707 813.76 411.109 810.778 410.82 805.665C410.532 800.552 409.836 797.731 408.758 797.196" fill="#000000" fill-rule="nonzero" opacity="0.998657" stroke="none"/>
<path d="M417.664 797.165C414.972 797.175 413.484 798.672 413.227 801.634C412.969 804.596 412.98 807.138 413.258 809.29C413.535 811.442 414.346 813.062 415.695 814.134C417.045 815.205 424.867 815.582 439.133 815.259C453.398 814.935 460.509 814.485 460.508 813.946C460.506 813.408 458.357 811.672 454.039 808.728C449.721 805.783 443.255 803.117 434.633 800.728" fill="#000000" fill-rule="nonzero" opacity="0.998657" stroke="none"/>
<path d="M390.195 797.259C386.965 797.271 384.001 798.757 381.32 801.728C378.64 804.699 376.898 807.67 376.102 810.634C375.704 812.116 375.312 813.621 374.914 815.103C377.606 815.227 380.316 815.353 383.008 815.478C388.392 815.726 391.484 815.444 392.289 814.634C393.094 813.823 393.74 810.707 394.258 805.321C394.517 802.629 394.78 799.952 395.039 797.259" fill="#000000" fill-rule="nonzero" opacity="0.998657" stroke="none"/>
<path d="M401.57 817.415C398.879 817.425 397.126 817.686 396.32 818.228C395.515 818.769 395.122 820.411 395.133 823.103C395.143 825.794 395.429 828.338 395.977 830.759C396.524 833.179 397.197 834.798 398.008 835.603C398.819 836.407 400.703 836.801 403.664 836.79C406.625 836.779 408.654 836.215 409.727 835.134C410.799 834.053 411.338 831.241 411.32 826.665C411.303 822.089 410.333 819.403 408.445 818.603" fill="#000000" fill-rule="nonzero" opacity="0.998657" stroke="none"/>
<path d="M439.133 817.665C424.866 817.45 417.069 817.896 415.727 818.978C414.385 820.059 413.57 823.143 413.32 828.259C413.071 833.374 413.904 836.059 415.789 836.321C417.674 836.583 423.178 835.498 432.32 833.04C441.463 830.583 447.384 828.677 450.07 827.321C452.757 825.965 455.176 824.065 457.32 821.634C458.393 820.418 459.467 819.224 460.539 818.009" fill="#000000" fill-rule="nonzero" opacity="0.998657" stroke="none"/>
<path d="M384.227 817.884C379.111 817.634 376.264 817.644 375.727 817.915C375.189 818.186 374.94 819.007 374.945 820.353C374.951 821.698 376.301 824.388 379.008 828.415C381.715 832.442 383.753 834.831 385.102 835.634C386.451 836.436 388.473 836.694 391.164 836.415C392.51 836.275 393.85 836.149 395.195 836.009C394.916 833.318 394.631 830.637 394.352 827.946C393.793 822.565 393.236 819.608 392.695 819.071" fill="#000000" fill-rule="nonzero" opacity="0.998657" stroke="none"/>
<path d="M369.195 818.134C368.051 818.138 366.6 818.348 364.852 818.759C361.355 819.58 359.595 820.937 359.602 822.821C359.609 824.706 360.168 827.389 361.258 830.884C362.348 834.379 364.115 836.386 366.539 836.915C368.964 837.444 372.054 837.437 375.82 836.884C377.704 836.607 379.594 836.348 381.477 836.071C380.121 833.385 378.739 830.695 377.383 828.009C374.671 822.636 372.775 819.531 371.695 818.728" fill="#000000" fill-rule="nonzero" opacity="0.998657" stroke="none"/>
</g>
</g>
</svg>
