<?xml version="1.0" encoding="UTF-8" standalone="no"?>
<!DOCTYPE svg PUBLIC "-//W3C//DTD SVG 1.1//EN" "http://www.w3.org/Graphics/SVG/1.1/DTD/svg11.dtd">
<!-- Created with Vectornator (http://vectornator.io/) -->
<svg height="100%" stroke-miterlimit="10" style="fill-rule:nonzero;clip-rule:evenodd;stroke-linecap:round;stroke-linejoin:round;" version="1.1" viewBox="337.625 752.025 67.0461 130.729" width="100%" xml:space="preserve" xmlns="http://www.w3.org/2000/svg" xmlns:vectornator="http://vectornator.io" xmlns:xlink="http://www.w3.org/1999/xlink">
<defs/>
<g id="Layer">
<g opacity="1">
<path d="M363.75 859.781C363.613 859.817 363.477 859.858 363.406 859.875C362.783 860.019 362.277 860.111 361.781 860.188C361.755 860.191 361.745 860.184 361.719 860.188C361.756 860.262 361.807 860.332 361.844 860.406C357.807 860.391 353.757 860.359 349.719 860.344C345.681 860.328 341.663 860.327 337.625 860.313C338.698 861.257 339.771 862.211 340.844 863.156C342.99 865.046 345.513 866.645 348.469 868C349.947 868.677 351.428 869.353 352.906 870.031C352.637 870.164 352.363 870.273 352.094 870.406C351.555 870.673 350.348 870.132 348.469 868.781C347.529 868.106 346.596 867.425 345.656 866.75C345.521 867.018 345.386 867.295 345.25 867.563C344.987 868.083 346.445 869.966 349.469 873.031C349.822 873.339 350.24 873.671 350.563 873.969C350.695 874.092 350.8 874.197 351.063 874.406C351.074 874.415 351.547 874.806 351.719 874.969C351.891 875.133 352.359 875.58 352.406 875.625C353.331 876.521 353.806 876.943 354.375 877.406C354.689 877.662 354.914 877.906 355.375 878.406C355.391 878.423 355.39 878.42 355.406 878.438C355.962 879.041 356.232 879.295 356.594 879.531C356.604 879.538 356.584 879.555 356.594 879.562C357.473 879.767 358.601 879.857 359.344 880.125C363.108 881.483 366.994 882.172 371.031 882.187C373.992 882.199 376.086 882.391 377.75 882.688C377.838 882.692 377.844 882.682 377.938 882.688C378.133 882.699 378.236 882.713 378.344 882.719C379.524 882.782 380.223 882.772 380.938 882.594C381.984 882.332 383.511 882.059 384.688 881.813C385.656 881.429 386.621 881.04 387.594 880.656C388.942 880.124 390.308 879.595 391.656 879.062C386.948 878.507 382.24 877.93 377.531 877.375C368.114 876.264 361.65 874.907 358.156 873.281C356.409 872.469 354.653 871.657 352.906 870.844C355.595 871.66 358.28 872.465 360.969 873.281C366.346 874.914 372.672 876.029 379.938 876.594C383.571 876.876 387.211 877.155 390.844 877.438C388.965 875.952 387.097 874.454 385.219 872.969C383.34 871.483 381.441 869.985 379.563 868.5C381.039 869.312 382.523 870.125 384 870.938C386.735 872.44 390.327 872.646 394.688 871.625C395.152 871.496 395.052 871.508 395.75 871.312C399.343 870.304 401.447 869.417 403.469 868.219C403.153 868.134 402.486 867.857 402.188 867.781C397.885 866.69 394.105 866.137 390.875 866.125C387.645 866.113 383.345 865.183 377.969 863.281C372.592 861.38 368.566 860.279 365.875 860C365.165 859.926 364.458 859.851 363.75 859.781Z" fill="#000000" fill-rule="nonzero" opacity="0.998657" stroke="none"/>
<path d="M364.889 774.875C364.752 774.838 364.617 774.796 364.546 774.779C363.924 774.63 363.419 774.534 362.924 774.454C362.898 774.45 362.887 774.457 362.861 774.453C362.899 774.379 362.95 774.31 362.988 774.236C358.951 774.22 354.9 774.222 350.863 774.206C346.825 774.19 342.807 774.161 338.769 774.145C339.849 773.208 340.929 772.263 342.009 771.326C344.17 769.453 346.705 767.873 349.671 766.541C351.155 765.875 352.641 765.21 354.124 764.544C353.856 764.409 353.583 764.298 353.314 764.163C352.778 763.892 351.566 764.424 349.677 765.76C348.732 766.428 347.794 767.101 346.849 767.77C346.716 767.5 346.583 767.223 346.449 766.954C346.19 766.432 347.663 764.56 350.709 761.518C351.065 761.213 351.486 760.884 351.81 760.589C351.944 760.468 352.049 760.363 352.314 760.156C352.325 760.147 352.801 759.76 352.974 759.598C353.147 759.436 353.619 758.992 353.667 758.947C354.598 758.059 355.077 757.641 355.649 757.181C355.964 756.928 356.192 756.686 356.656 756.189C356.672 756.172 356.672 756.175 356.688 756.158C357.248 755.559 357.52 755.308 357.884 755.074C357.894 755.067 357.874 755.05 357.884 755.042C358.765 754.845 359.894 754.763 360.638 754.501C364.412 753.172 368.303 752.513 372.341 752.528C375.302 752.539 377.397 752.363 379.063 752.079C379.152 752.075 379.158 752.085 379.251 752.081C379.447 752.071 379.549 752.057 379.657 752.052C380.838 751.998 381.537 752.013 382.25 752.197C383.294 752.467 384.819 752.751 385.994 753.007C386.96 753.397 387.922 753.794 388.891 754.185C390.236 754.728 391.598 755.267 392.942 755.81C388.229 756.329 383.517 756.87 378.804 757.389C369.379 758.428 362.904 759.736 359.399 761.335C357.645 762.134 355.883 762.932 354.13 763.732C356.825 762.936 359.516 762.152 362.211 761.356C367.6 759.764 373.935 758.698 381.204 758.189C384.84 757.934 388.482 757.683 392.117 757.428C390.227 758.899 388.348 760.382 386.458 761.853C384.568 763.324 382.658 764.807 380.768 766.278C382.251 765.478 383.74 764.676 385.224 763.875C387.97 762.393 391.564 762.215 395.916 763.269C396.38 763.401 396.28 763.388 396.976 763.589C400.561 764.625 402.658 765.528 404.671 766.741C404.354 766.824 403.685 767.096 403.387 767.169C399.076 768.228 395.292 768.752 392.062 768.739C388.832 768.727 384.525 769.623 379.134 771.484C373.743 773.344 369.709 774.414 367.016 774.672C366.306 774.741 365.598 774.81 364.889 774.875Z" fill="#000000" fill-rule="nonzero" opacity="0.998657" stroke="none"/>
</g>
</g>
</svg>
