<?xml version="1.0" encoding="UTF-8" standalone="no"?>
<!DOCTYPE svg PUBLIC "-//W3C//DTD SVG 1.1//EN" "http://www.w3.org/Graphics/SVG/1.1/DTD/svg11.dtd">
<!-- Created with Vectornator (http://vectornator.io/) -->
<svg height="100%" stroke-miterlimit="10" style="fill-rule:nonzero;clip-rule:evenodd;stroke-linecap:round;stroke-linejoin:round;" version="1.1" viewBox="316.511 776.854 42.7073 81.3984" width="100%" xml:space="preserve" xmlns="http://www.w3.org/2000/svg" xmlns:vectornator="http://vectornator.io" xmlns:xlink="http://www.w3.org/1999/xlink">
<defs/>
<g id="Layer">
<g opacity="1">
<path d="M329.498 777.023C326.27 777.573 323.995 778.515 322.654 779.866C321.676 780.852 320.803 782.324 319.966 784.023C319.684 784.534 319.404 785.007 319.154 785.835C319.12 785.947 318.599 787.719 318.591 787.741C318.36 788.469 318.258 788.801 318.154 789.21C318.049 789.622 317.882 790.769 317.873 790.835C317.772 791.581 317.716 791.919 317.623 792.335C317.59 792.483 317.382 793.438 317.341 793.648C317.337 793.672 317.316 793.688 317.31 793.71C317.235 795.699 317.174 797.687 317.091 799.679C316.845 805.602 317.123 809.242 317.935 810.585C318.748 811.928 321.585 813.258 326.435 814.585C331.286 815.913 336.914 816.442 343.373 816.148C349.832 815.854 353.886 815.274 355.498 814.46C357.11 813.647 358.185 812.315 358.716 810.429C359.248 808.543 359.349 804.905 359.06 799.523C358.915 796.831 358.767 794.151 358.623 791.46C357.271 789.985 355.943 788.498 354.591 787.023C351.888 784.072 347.827 781.531 342.435 779.398C337.044 777.265 332.726 776.472 329.498 777.023Z" fill="#000000" fill-rule="nonzero" opacity="0.998657" stroke="none"/>
<path d="M329.207 858.098C325.975 857.572 323.693 856.647 322.342 855.306C321.356 854.328 320.472 852.863 319.623 851.17C319.337 850.661 319.053 850.19 318.797 849.364C318.762 849.253 318.227 847.484 318.22 847.462C317.983 846.736 317.878 846.405 317.771 845.996C317.663 845.585 317.487 844.439 317.477 844.373C317.372 843.628 317.312 843.29 317.216 842.875C317.182 842.728 316.967 841.774 316.925 841.564C316.92 841.54 316.899 841.524 316.893 841.502C316.803 839.514 316.727 837.525 316.629 835.534C316.337 829.613 316.588 825.97 317.39 824.621C318.192 823.272 321.019 821.92 325.859 820.556C330.699 819.191 336.323 818.619 342.784 818.864C349.245 819.109 353.304 819.658 354.922 820.46C356.54 821.261 357.625 822.584 358.171 824.467C358.717 826.349 358.846 829.986 358.598 835.371C358.473 838.064 358.346 840.745 358.222 843.438C356.881 844.924 355.564 846.421 354.224 847.907C351.544 850.878 347.502 853.451 342.126 855.625C336.751 857.799 332.439 858.624 329.207 858.098Z" fill="#000000" fill-rule="nonzero" opacity="0.998657" stroke="none"/>
</g>
</g>
</svg>
