<?xml version="1.0" encoding="UTF-8" standalone="no"?>
<!DOCTYPE svg PUBLIC "-//W3C//DTD SVG 1.1//EN" "http://www.w3.org/Graphics/SVG/1.1/DTD/svg11.dtd">
<!-- Created with Vectornator (http://vectornator.io/) -->
<svg height="100%" stroke-miterlimit="10" style="fill-rule:nonzero;clip-rule:evenodd;stroke-linecap:round;stroke-linejoin:round;" version="1.1" viewBox="380.625 738.545 69.375 157.039" width="100%" xml:space="preserve" xmlns="http://www.w3.org/2000/svg" xmlns:vectornator="http://vectornator.io" xmlns:xlink="http://www.w3.org/1999/xlink">
<defs/>
<g id="Layer">
<g opacity="1">
<g opacity="1">
<path d="M404.719 868.625C403.835 869.197 402.941 869.719 401.969 870.156C401.77 870.301 401.573 870.447 401.375 870.594C400.835 870.995 400.29 871.412 399.75 871.812C400.69 872.353 401.622 872.897 402.563 873.438C404.443 874.52 412.258 877.379 425.969 882C439.679 886.621 446.909 888.659 447.719 888.125C448.124 887.858 448.533 887.58 448.938 887.312C446.788 886.364 444.65 885.418 442.5 884.469C440.35 883.52 438.212 882.605 436.063 881.656C436.87 881.525 437.661 881.381 438.469 881.25C438.551 881.236 438.636 881.233 438.719 881.219C438.681 881.205 438.579 881.162 438.563 881.156C437.899 880.93 437.404 880.758 436.906 880.563C436.763 880.506 436.639 880.433 436.5 880.375C434.132 880.099 432.842 879.723 432.844 879.219C432.845 878.681 428.814 876.893 420.75 873.906C413.786 871.327 408.88 869.792 404.719 868.625Z" fill="#000000" fill-rule="nonzero" opacity="0.998657" stroke="none"/>
<path d="M396.5 872.594C394.885 872.588 393.687 873.147 392.875 874.219C392.47 874.754 392.062 875.276 391.656 875.812C392.998 876.758 394.345 877.711 395.688 878.656C397.029 879.602 398.376 880.554 399.719 881.5C397.026 881.624 394.317 881.751 391.625 881.875C390.634 881.921 389.645 881.954 388.656 882C388.508 882.029 388.515 882.044 388.25 882.094C384.796 882.736 383.15 883.072 381.188 883.563C381.026 883.603 380.788 883.567 380.625 883.594C381.864 884.196 383.102 885 384.344 886.25C385.953 887.869 388.506 889.362 392 890.719C395.494 892.076 402.612 893.322 413.375 894.438C418.756 894.996 423.494 895.35 427.531 895.5C431.569 895.649 434.932 895.602 437.625 895.344C440.318 895.085 442.995 894.821 445.688 894.563C442.461 893.609 439.227 892.671 436 891.719C432.773 890.766 429.57 889.796 426.344 888.844C428.898 889.526 431.445 890.194 434 890.875C439.109 892.238 442.616 892.93 444.5 892.938C445.443 892.941 446.37 892.965 447.313 892.969C447.179 892.7 447.04 892.426 446.906 892.156C446.639 891.618 440.991 889.43 429.969 885.625C418.947 881.821 411.023 878.718 406.188 876.281C401.352 873.844 398.115 872.6 396.5 872.594Z" fill="#000000" fill-rule="nonzero" opacity="0.998657" stroke="none"/>
</g>
<g opacity="1">
<path d="M405.781 765.505C404.898 764.933 404.004 764.411 403.031 763.974C402.833 763.829 402.635 763.683 402.437 763.536C401.897 763.135 401.352 762.718 400.812 762.317C401.752 761.776 402.685 761.233 403.625 760.692C405.505 759.61 413.321 756.751 427.031 752.13C440.742 747.508 447.972 745.47 448.781 746.005C449.187 746.272 449.595 746.55 450 746.817C447.85 747.766 445.712 748.712 443.562 749.661C441.413 750.61 439.275 751.525 437.125 752.473C437.933 752.605 438.723 752.748 439.531 752.88C439.613 752.893 439.699 752.897 439.781 752.911C439.743 752.924 439.642 752.967 439.625 752.973C438.961 753.2 438.466 753.372 437.969 753.567C437.825 753.624 437.702 753.697 437.562 753.755C435.194 754.031 433.904 754.406 433.906 754.911C433.907 755.449 429.876 757.236 421.812 760.224C414.849 762.803 409.942 764.338 405.781 765.505Z" fill="#000000" fill-rule="nonzero" opacity="0.998657" stroke="none"/>
<path d="M397.562 761.536C395.948 761.542 394.749 760.983 393.937 759.911C393.532 759.375 393.125 758.854 392.719 758.317C394.061 757.372 395.408 756.419 396.75 755.473C398.092 754.528 399.439 753.575 400.781 752.63C398.089 752.506 395.38 752.379 392.687 752.255C391.696 752.209 390.707 752.176 389.719 752.13C389.57 752.1 389.577 752.085 389.312 752.036C385.858 751.394 384.213 751.058 382.25 750.567C382.088 750.527 381.85 750.563 381.687 750.536C382.927 749.934 384.164 749.129 385.406 747.88C387.016 746.261 389.568 744.768 393.062 743.411C396.557 742.054 403.675 740.808 414.437 739.692C419.819 739.133 424.557 738.779 428.594 738.629C432.631 738.48 435.995 738.527 438.687 738.786C441.38 739.044 444.057 739.308 446.75 739.567C443.523 740.52 440.289 741.458 437.062 742.411C433.836 743.364 430.633 744.333 427.406 745.286C429.961 744.604 432.508 743.936 435.062 743.254C440.172 741.891 443.678 741.199 445.562 741.192C446.506 741.188 447.433 741.164 448.375 741.161C448.242 741.429 448.102 741.704 447.969 741.973C447.702 742.512 442.053 744.7 431.031 748.505C420.009 752.309 412.086 755.411 407.25 757.849C402.415 760.286 399.178 761.53 397.562 761.536Z" fill="#000000" fill-rule="nonzero" opacity="0.998657" stroke="none"/>
</g>
</g>
</g>
</svg>
