<?xml version="1.0" encoding="UTF-8" standalone="no"?>
<!DOCTYPE svg PUBLIC "-//W3C//DTD SVG 1.1//EN" "http://www.w3.org/Graphics/SVG/1.1/DTD/svg11.dtd">
<!-- Created with Vectornator (http://vectornator.io/) -->
<svg height="100%" stroke-miterlimit="10" style="fill-rule:nonzero;clip-rule:evenodd;stroke-linecap:round;stroke-linejoin:round;" version="1.1" viewBox="557.047 774.875 95.3125 84.5312" width="100%" xml:space="preserve" xmlns="http://www.w3.org/2000/svg" xmlns:vectornator="http://vectornator.io" xmlns:xlink="http://www.w3.org/1999/xlink">
<defs/>
<g id="Layer">
<g opacity="1">
<path d="M585.359 774.875C582.819 774.969 580.233 775.158 577.609 775.438C567.116 776.554 561.889 777.368 561.891 777.906C561.893 778.445 561.096 779.124 559.484 779.938C558.678 780.344 557.853 780.749 557.047 781.156C558.797 781.15 560.547 781.132 562.297 781.125C565.796 781.112 579.271 782.946 602.703 786.625C626.136 790.304 638.376 792.16 639.453 792.156C639.992 792.154 640.54 792.158 641.078 792.156C640.807 791.754 640.536 791.34 640.266 790.938C639.724 790.132 636.339 788.798 630.141 786.938C627.041 786.007 623.958 785.087 620.859 784.156C624.362 785.085 627.856 786.009 631.359 786.938C638.365 788.795 642.408 789.723 643.484 789.719C644.023 789.717 644.571 789.721 645.109 789.719C644.839 789.451 644.567 789.174 644.297 788.906C643.756 788.37 637.559 786.498 625.703 783.313C619.775 781.72 613.85 780.124 607.922 778.531C613.174 779.319 618.42 780.119 623.672 780.906C634.176 782.481 641.585 783.129 645.891 782.844C648.044 782.701 650.206 782.549 652.359 782.406C647.108 781.888 641.829 781.362 636.578 780.844C626.076 779.807 616.269 778.381 607.109 776.531" fill="#000000" fill-rule="nonzero" opacity="0.998657" stroke="none"/>
<path d="M601.141 793.438C590.895 793.325 583.765 794.168 579.734 796C577.047 797.222 574.359 798.466 571.672 799.688C572.749 799.683 573.814 799.66 574.891 799.656C577.044 799.648 579.75 800.186 582.984 801.25C586.219 802.314 591.055 802.837 597.516 802.813C603.976 802.788 608.959 802.078 612.453 800.719C615.947 799.36 620.658 798.404 626.578 797.844C632.498 797.283 635.698 796.728 636.234 796.188C636.502 795.917 636.779 795.676 637.047 795.406C628.835 794.899 620.634 794.382 612.422 793.875" fill="#000000" fill-rule="nonzero" opacity="0.998657" stroke="none"/>
<path d="M597.625 830.281C592.242 830.302 587.67 830.846 583.906 831.938C580.142 833.029 576.911 833.584 574.219 833.594C572.658 833.6 571.022 833.359 569.375 833C569.034 833.053 568.7 833.09 568.344 833.125C572.107 834.179 576.094 835.628 580.312 837.594C584.897 839.73 597.666 840.082 618.656 838.656C629.151 837.943 639.661 837.244 650.156 836.531C646.522 836.545 642.883 836.549 639.25 836.563C631.982 836.59 624.576 835.562 617.031 833.438C609.486 831.313 603.009 830.26 597.625 830.281Z" fill="#000000" fill-rule="nonzero" opacity="0.998657" stroke="none"/>
<path d="M637.25 841.812C634.019 841.556 620.686 843.224 597.281 846.813C573.876 850.401 561.5 852.488 560.156 853.031C559.484 853.303 558.828 853.572 558.156 853.844C559.1 854.244 560.025 854.631 560.969 855.031C561.912 855.431 562.869 855.85 563.812 856.25C563.677 856.262 563.542 856.27 563.406 856.281C563.514 856.361 563.556 856.507 563.594 856.656C567.741 856.53 571.167 856.716 573.5 857.406C576.195 858.204 579.557 858.471 583.594 858.188C585.612 858.045 587.638 857.892 589.656 857.75C588.311 858.024 586.97 858.289 585.625 858.563C584.28 858.837 582.939 859.132 581.594 859.406C584.016 859.397 586.421 859.384 588.844 859.375C593.689 859.357 600.562 858.386 609.437 856.469C618.313 854.551 627.458 853.018 636.875 851.906C641.584 851.35 646.292 850.806 651 850.25C648.174 850.261 645.358 850.271 642.531 850.281C636.879 850.303 629.352 851.13 619.937 852.781C615.23 853.607 610.52 854.456 605.812 855.281C612.266 853.507 618.703 851.712 625.156 849.938C638.063 846.389 644.67 844.351 644.937 843.813C645.071 843.543 645.179 843.269 645.312 843C645.043 843.001 644.8 842.999 644.531 843C643.993 843.002 640.073 843.963 632.812 845.875C629.182 846.831 625.568 847.794 621.937 848.75C625.298 847.661 628.639 846.558 632 845.469C635.361 844.379 638.733 843.308 642.094 842.219C640.478 842.09 638.866 841.941 637.25 841.812Z" fill="#000000" fill-rule="nonzero" opacity="0.998657" stroke="none"/>
</g>
</g>
</svg>
