<?xml version="1.0" encoding="UTF-8" standalone="no"?>
<!DOCTYPE svg PUBLIC "-//W3C//DTD SVG 1.1//EN" "http://www.w3.org/Graphics/SVG/1.1/DTD/svg11.dtd">
<!-- Created with Vectornator (http://vectornator.io/) -->
<svg height="100%" stroke-miterlimit="10" style="fill-rule:nonzero;clip-rule:evenodd;stroke-linecap:round;stroke-linejoin:round;" version="1.1" viewBox="427.844 771.454 118.112 90.9313" width="100%" xml:space="preserve" xmlns="http://www.w3.org/2000/svg" xmlns:vectornator="http://vectornator.io" xmlns:xlink="http://www.w3.org/1999/xlink">
<defs/>
<g id="Layer">
<path d="M478.781 771.594C471.234 771.857 463.763 772.488 456.375 773.531C442.654 775.468 433.232 777.24 428.125 778.875C428.032 778.905 427.936 778.908 427.844 778.938C427.864 778.949 427.881 778.951 427.906 778.969C428.684 779.491 428.685 779.518 428.938 779.656C429.176 779.786 429.245 780.028 429.406 780.219C429.517 780.317 429.685 780.371 429.75 780.5C430.021 781.037 430.98 781.287 432.594 781.281C433.401 781.278 434.191 781.285 435 781.281C434.733 781.821 434.485 782.367 434.219 782.906C433.952 783.446 433.672 783.992 433.406 784.531C434.349 784.797 435.276 785.047 436.219 785.312C437.162 785.578 438.119 785.859 439.062 786.125C438.66 786.53 438.247 786.908 437.844 787.312C437.441 787.718 437.059 788.126 436.656 788.531C438.004 789.064 439.339 789.623 440.688 790.156C442.035 790.689 443.401 791.217 444.75 791.75C444.482 792.02 444.205 792.292 443.938 792.562C443.669 792.833 443.392 793.104 443.125 793.375C444.88 794.849 446.65 796.307 448.406 797.781C451.917 800.729 455.683 801.792 459.719 800.969C463.753 800.146 466.441 799.07 467.781 797.719C469.122 796.368 472.893 796.883 479.094 799.281C485.294 801.68 491.629 803.417 498.094 804.469C501.326 804.995 504.549 805.505 507.781 806.031C505.899 806.577 504.008 807.142 502.125 807.688C498.361 808.779 492.04 809.068 483.156 808.562C478.714 808.31 474.286 808.034 469.844 807.781C470.52 808.586 471.167 809.414 471.844 810.219C473.196 811.829 473.895 813.964 473.906 816.656C473.916 819.348 473.245 821.505 471.906 823.125C471.236 823.935 470.578 824.752 469.906 825.562C474.212 825.277 478.507 825.004 482.813 824.719C491.424 824.148 498.013 824.378 502.594 825.438C504.884 825.967 507.179 826.502 509.469 827.031C506.106 827.582 502.738 828.136 499.375 828.688C492.65 829.79 486.213 831.554 480.031 834C473.849 836.446 469.523 836.855 467.094 835.25C464.665 833.644 461.994 832.59 459.031 832.062C456.068 831.535 453.906 831.824 452.562 832.906C451.892 833.447 451.233 833.99 450.562 834.531C451.102 834.798 451.619 835.046 452.156 835.312C452.696 835.58 453.244 835.858 453.781 836.125C452.57 836.264 451.367 836.391 450.156 836.531C447.735 836.81 445.838 837.892 444.5 839.781C443.161 841.671 441.57 843.028 439.687 843.844C437.806 844.658 436.87 845.61 436.875 846.688C436.879 847.764 436.325 848.581 435.25 849.125C434.175 849.667 433.656 850.18 433.656 850.719C433.658 851.257 434.204 851.671 435.281 851.938C435.82 852.07 436.367 852.21 436.906 852.344C435.964 852.347 435.007 852.341 434.062 852.344C432.178 852.351 430.973 852.753 430.438 853.563C430.379 853.651 430.292 853.669 430.219 853.719C430.2 853.762 430.25 853.805 430.219 853.844C430.222 853.864 430.231 853.883 430.219 853.906C430.175 853.985 430.122 854.04 430.062 854.125C430.012 854.198 429.882 854.396 429.875 854.406C429.626 854.811 429.58 854.887 429.469 855.062C429.4 855.172 429.349 855.212 429.281 855.312C433.639 856.614 440.839 858.029 451.062 859.563C461.567 861.138 471.104 862.045 479.719 862.281C488.333 862.518 496.54 862.349 504.344 861.781C512.148 861.213 519.299 859.833 525.75 857.656C532.202 855.478 536.503 854.383 538.656 854.375C539.733 854.371 540.797 854.38 541.875 854.375C541.471 854.242 541.061 854.102 540.656 853.969C540.252 853.836 539.873 853.695 539.469 853.563C540.006 853.157 540.525 852.749 541.062 852.344C542.136 851.532 542.551 850.851 542.281 850.312C542.01 849.775 540.123 849.518 536.625 849.531C533.126 849.545 528.139 850.772 521.688 853.219C518.34 854.489 515.503 855.386 513.094 856C513.084 856.005 513.104 856.028 513.094 856.031C512.832 856.13 512.584 856.19 512.156 856.25C512.12 856.255 512.129 856.245 512.094 856.25C511.823 856.288 511.695 856.314 511.562 856.344C511.536 856.35 511.558 856.338 511.531 856.344C510.859 856.502 505.21 858.002 504.656 858.156C504.607 858.17 504.566 858.202 504.469 858.25C504.436 858.267 504.441 858.264 504.406 858.281C504.2 858.386 504.083 858.429 503.937 858.469C503.276 858.654 502.617 858.766 501.531 858.875C501.381 858.89 501.399 858.892 501.25 858.906C500.598 858.971 500.289 859.012 499.937 859.062C499.798 859.082 499.668 859.077 499.5 859.062C499.434 859.056 499.234 859.033 499.187 859.031C499.074 859.026 498.95 859.034 498.75 859.062C498.699 859.07 498.709 859.054 498.656 859.062C498.392 859.103 498.251 859.119 498.094 859.125C497.812 859.136 497.132 859.095 497.125 859.094C496.721 859.056 496.533 859.023 496.312 859.031C496.054 859.041 494.877 859.114 494.688 859.125C494.012 859.161 493.486 859.164 493 859.125C492.911 859.118 492.79 859.128 492.75 859.125C492.144 859.075 491.804 859.06 491.438 859.094C491.116 859.124 490.799 859.073 490.344 859C490.279 858.99 490.26 859.013 490.187 859C490.169 858.997 490.175 859.003 490.156 859C485.052 859.08 480.297 858.896 476.094 858.25C473.535 857.856 470.965 857.457 468.406 857.063C470.158 857.729 471.904 858.396 473.656 859.062C475.408 859.729 477.154 860.396 478.906 861.062C478.638 861.198 478.395 861.333 478.125 861.469C477.588 861.74 472.453 860.286 462.75 857.094C453.047 853.9 446.301 852.162 442.531 851.906C440.647 851.779 438.758 851.659 436.875 851.531C443.061 850.162 449.251 848.776 455.437 847.406C467.809 844.667 479.372 841.403 490.125 837.594C500.878 833.784 510.822 831.193 519.969 829.813C524.542 829.122 529.114 828.44 533.688 827.75C528.174 828.848 522.671 829.934 517.156 831.031C506.128 833.227 500.348 834.584 499.812 835.125C499.544 835.395 499.268 835.667 499 835.938C501.154 836.199 503.314 836.457 505.469 836.719C507.29 836.939 509.115 837.154 510.938 837.375C514.344 837.635 517.153 837.947 519.781 838.5C520.078 838.563 520.895 838.682 520.937 838.687C521.709 838.789 522.07 838.858 522.5 838.969C523.74 839.289 524.721 839.497 525.688 839.625C525.882 839.651 526.033 839.693 526.281 839.812C526.308 839.825 526.287 839.832 526.312 839.844C526.409 839.889 526.457 839.901 526.5 839.906C526.51 839.907 526.521 839.905 526.531 839.906C529.97 840.26 533.34 840.432 536.562 840.25C541.676 839.961 544.634 839.268 545.438 838.188C546.241 837.108 546.114 835.63 545.031 833.75C543.947 831.87 542.995 830.798 542.187 830.531C541.783 830.398 541.373 830.257 540.969 830.125C541.372 829.854 541.785 829.583 542.188 829.312C542.59 829.042 543.003 828.77 543.406 828.5C539.771 828.11 536.134 827.734 532.5 827.344C525.229 826.564 521.05 825.772 519.969 824.969C518.889 824.165 514.162 822.958 505.812 821.375C497.462 819.792 490.19 819.145 484 819.438C477.81 819.73 474.588 819.083 474.312 817.469C474.175 816.662 474.044 815.87 473.906 815.062C476.463 815.053 479.004 815.041 481.562 815.031C486.677 815.012 493.686 814.18 502.562 812.531C511.439 810.882 517.219 809.493 519.906 808.406C522.594 807.319 525.413 806.792 528.375 806.781C529.856 806.776 531.333 806.755 532.812 806.75C532.079 806.478 531.354 806.206 530.625 805.938C529.122 805.542 527.713 805.039 526.125 804.812C524.063 804.518 521.912 804.125 519.562 803.656C516.941 803.133 514.557 802.626 510.375 801.656C510.084 801.589 508.002 801.094 507.594 801C506.809 800.819 504.753 800.438 504.75 800.438C503.982 800.303 503.769 800.201 503.219 800.094C502.313 799.927 501.408 799.761 500.5 799.594C500.563 799.572 500.625 799.553 500.687 799.531C500.47 799.467 500.098 799.418 499.875 799.344C499.59 799.249 499.203 799.016 498.844 798.812C498.719 798.812 498.593 798.812 498.469 798.812C497.661 798.816 493.212 797.337 485.125 794.406C477.039 791.476 466.798 788.844 454.406 786.469C448.211 785.281 442.007 784.094 435.812 782.906C437.965 782.629 440.129 782.34 442.281 782.062C446.586 781.508 453.846 779.582 464.062 776.312C468.973 774.741 473.871 773.165 478.781 771.594ZM478.875 771.594C477.161 772.213 475.464 772.85 473.75 773.469C471.868 774.149 469.974 774.819 468.094 775.5C468.902 775.766 469.723 776.046 470.531 776.312C470.677 776.36 470.824 776.391 470.969 776.438C471.185 776.399 471.319 776.396 471.594 776.344C472.886 776.099 473.057 776.078 473.562 776C476.07 775.614 478.587 775.331 481.188 775.125C481.26 775.115 481.333 775.104 481.406 775.094C481.542 775.075 481.677 775.05 481.812 775.031C487.731 774.201 492.574 773.932 496.344 774.188C500.113 774.442 506.586 776.043 515.75 778.969C524.913 781.895 531.662 783.329 535.969 783.312C538.122 783.304 540.253 783.289 542.406 783.281C541.731 782.611 541.049 781.951 540.375 781.281C539.699 780.611 539.049 779.951 538.375 779.281C539.182 779.144 539.975 778.982 540.781 778.844C541.588 778.706 542.413 778.576 543.219 778.438C541.738 778.443 540.229 778.463 538.75 778.469C535.789 778.48 531.885 777.553 527.031 775.688C522.179 773.822 512.644 772.503 498.375 771.75C491.821 771.404 485.313 771.373 478.875 771.594ZM486.656 775.844C485.333 775.888 484.01 775.927 482.687 775.969C482.259 776.015 481.8 776.068 481.469 776.094C478.812 776.298 476.273 776.607 473.719 777C473.23 777.075 473.058 777.102 471.781 777.344C470.968 777.498 470.443 777.577 469.906 777.656C469.657 777.693 469.513 777.66 469.281 777.688C467 778.047 464.716 778.391 462.438 778.75C455.443 779.853 451.145 780.674 449.531 781.219C447.918 781.763 447.125 782.305 447.125 782.844C447.127 783.382 451.989 784.727 461.688 786.844C471.386 788.96 479.606 791.197 486.344 793.594C488.952 794.521 491.403 795.069 493.844 795.594C500.572 796.568 507.601 796.48 514.156 795.312C517.264 794.428 520.358 793.54 523.469 792.656C530.191 790.746 533.703 789.371 533.969 788.562C534.235 787.754 533.557 786.82 531.938 785.75C530.318 784.679 524.638 782.674 514.938 779.75C505.236 776.826 495.807 775.54 486.656 775.844ZM536.812 792.594C533.468 792.397 529.591 792.722 525.438 793.344C525.024 793.473 524.934 793.476 524.469 793.625C524.33 793.669 524.326 793.675 524.187 793.719C520.286 794.967 518.516 795.49 516.281 795.969C510.794 797.145 504.906 797.541 499.094 797.188C499.021 797.192 498.948 797.183 498.875 797.188C498.994 797.423 499.1 797.669 499.219 797.906C499.59 798.124 499.95 798.327 500.187 798.406C501.464 798.832 504.903 799.468 504.906 799.469C505.216 799.523 505.283 799.55 505.531 799.594C506.447 799.756 507.208 799.884 507.844 800.031C508.252 800.125 510.303 800.589 510.594 800.656C512.432 801.082 513.311 801.267 514.625 801.562C516.294 801.938 518.291 802.396 519.75 802.688C522.082 803.153 524.239 803.521 526.281 803.812C528.207 804.087 529.958 804.67 531.75 805.188C534.67 805.633 536.961 805.788 538.469 805.531C540.083 805.256 540.876 804.82 540.875 804.281C540.874 804.012 540.877 803.768 540.875 803.5C541.146 803.499 541.417 803.501 541.688 803.5C542.49 802.286 543.292 801.059 544.094 799.844C545.7 797.415 545.955 795.666 544.875 794.594C543.794 793.521 541.12 792.847 536.812 792.594ZM501 837.25C500.345 837.214 499.485 837.287 498.781 837.281C498.651 837.291 498.538 837.27 498.406 837.281C493.506 837.696 487.906 839.005 481.656 841.25C473.323 844.243 465.544 846.441 458.281 847.812C454.65 848.499 451.007 849.189 447.375 849.875C447.646 850.278 447.917 850.69 448.187 851.094C448.729 851.899 451.842 852.956 457.5 854.281C463.158 855.606 472.179 856.646 484.562 857.406C487.763 857.603 490.959 857.804 494.156 858C494.181 857.992 494.16 857.942 494.188 857.938C494.5 857.886 494.834 857.868 495.25 857.875C495.384 857.877 496.07 857.904 496.187 857.906C496.228 857.907 496.258 857.914 496.312 857.906C496.381 857.897 496.458 857.874 496.594 857.844C496.888 857.778 497.006 857.75 497.187 857.75C497.291 857.75 497.366 857.765 497.531 857.781C497.717 857.8 497.801 857.792 497.875 857.781C497.974 857.716 498.031 857.687 498.125 857.656C498.305 857.597 498.47 857.601 498.75 857.625C498.781 857.628 498.783 857.622 498.812 857.625C498.963 857.638 499.027 857.627 499.062 857.625C499.165 857.617 499.26 857.606 499.375 857.594C499.547 857.575 500.407 857.456 500.562 857.438C500.795 857.41 501.024 857.359 501.437 857.25C501.482 857.238 501.96 857.13 502.125 857.094C502.41 857.03 502.785 856.986 503.125 856.938C505.142 856.526 507.17 856.1 509.188 855.688C513.222 854.865 517.799 853.499 522.906 851.594C528.013 849.69 531.22 848.207 532.562 847.125C533.233 846.584 533.893 846.042 534.562 845.5C533.483 844.697 532.425 843.897 531.344 843.094C530.395 842.388 529.008 841.757 527.438 841.156C527.105 841.084 526.681 840.951 526.375 840.906C526.207 840.882 526.101 840.842 525.906 840.75C525.877 840.736 525.871 840.732 525.844 840.719C525.69 840.645 525.618 840.601 525.562 840.594C524.55 840.46 523.526 840.267 522.25 839.937C521.873 839.84 520.793 839.693 520.75 839.687C520.216 839.617 519.891 839.569 519.562 839.5C516.033 838.757 512.815 838.41 507.062 838.094C506.184 838.045 505.498 837.965 503.969 837.688C503.835 837.663 503.821 837.649 503.687 837.625C502.456 837.403 501.764 837.292 501 837.25Z" fill="#000000" fill-rule="nonzero" opacity="0.998657" stroke="none"/>
</g>
</svg>
