<?xml version="1.0" encoding="UTF-8" standalone="no"?>
<!DOCTYPE svg PUBLIC "-//W3C//DTD SVG 1.1//EN" "http://www.w3.org/Graphics/SVG/1.1/DTD/svg11.dtd">
<!-- Created with Vectornator (http://vectornator.io/) -->
<svg height="100%" stroke-miterlimit="10" style="fill-rule:nonzero;clip-rule:evenodd;stroke-linecap:round;stroke-linejoin:round;" version="1.1" viewBox="283.969 755.676 71.3592 123.616" width="100%" xml:space="preserve" xmlns="http://www.w3.org/2000/svg" xmlns:vectornator="http://vectornator.io" xmlns:xlink="http://www.w3.org/1999/xlink">
<defs/>
<g id="Layer">
<g opacity="1">
<g opacity="1">
<g opacity="1">
<path d="M345.953 762.117C344.746 762.22 343.502 762.044 342.203 761.617C340.586 761.085 338.976 760.554 337.359 760.022C336.954 759.754 336.545 759.508 336.141 759.24C335.331 758.706 333.582 758.417 330.891 758.427C329.545 758.432 328.205 758.453 326.859 758.459C327.801 758.051 328.731 757.646 329.672 757.239C331.554 756.425 336.122 756.122 343.391 756.364C348.246 756.525 352.033 756.222 355.328 755.676C355.307 755.699 355.288 755.683 355.266 755.707C355.25 755.724 354.624 756.429 354.359 756.645C353.761 757.133 353.273 757.574 352.328 758.49C352.281 758.536 351.81 758.985 351.641 759.147C351.498 759.283 351.363 759.389 351.078 759.616C351.067 759.625 350.641 759.971 350.484 760.116C350.176 760.401 349.785 760.728 349.453 761.023C348.332 761.633 347.161 762.015 345.953 762.117Z" fill="#000000" fill-rule="nonzero" opacity="0.998657" stroke="none"/>
</g>
<path d="M329.813 758.999C325.504 758.477 321.335 760.259 317.313 764.312C313.29 768.365 310.893 771.468 310.094 773.624C309.295 775.781 308.895 778.32 308.906 781.281C308.918 784.242 308.132 787.631 306.531 791.406C304.931 795.18 302.915 798.149 300.5 800.312C298.086 802.475 294.713 803.545 290.406 803.562C288.253 803.57 286.122 803.585 283.969 803.593C284.509 803.995 285.023 804.41 285.563 804.812C286.642 805.615 290.713 806.923 297.719 808.781C304.725 810.638 309.285 811.433 311.438 811.156C312.514 811.017 313.58 810.888 314.656 810.749C314.249 809.809 313.845 808.878 313.438 807.937C312.623 806.056 311.673 804.846 310.594 804.312C310.055 804.045 309.54 803.767 309 803.499C309.673 803.362 310.328 803.23 311 803.093C312.345 802.819 313.28 802.004 313.813 800.656C314.079 799.982 314.359 799.298 314.625 798.624C313.549 798.763 312.483 798.923 311.406 799.062C310.33 799.201 309.232 799.329 308.156 799.468C308.962 799.061 309.788 798.656 310.594 798.249C312.206 797.436 312.872 795.827 312.594 793.406C312.316 790.984 311.75 789.092 310.938 787.749C310.125 786.407 309.859 785.339 310.125 784.531C310.258 784.126 310.398 783.716 310.531 783.312C311.346 785.193 312.154 787.056 312.969 788.937C313.784 790.818 314.592 792.712 315.406 794.593C315.532 794.211 315.652 793.822 315.781 793.437C315.8 793.12 315.811 792.901 315.844 792.687C315.859 792.589 315.886 792.511 315.906 792.406C315.951 792.176 316.188 791.201 316.219 791.062C316.303 790.683 316.46 789.597 316.469 789.531C316.569 788.786 316.634 788.365 316.75 787.906C316.861 787.47 317.747 784.614 317.781 784.499C317.857 784.25 317.957 784.155 318.031 783.937C318.215 783.426 318.456 782.917 318.719 782.406C318.824 782.22 318.878 781.922 319 781.749C319.021 781.72 319.068 781.773 319.094 781.749C319.345 781.317 319.506 780.871 319.813 780.437C321.151 778.548 324.635 776.655 330.281 774.749C335.927 772.844 339.686 770.953 341.563 769.062C343.44 767.171 344.515 765.808 344.781 764.999C345.047 764.191 343.685 763.115 340.719 761.781C339.236 761.113 337.764 760.448 336.281 759.781C334.127 759.52 331.967 759.26 329.813 758.999Z" fill="#000000" fill-rule="nonzero" opacity="0.998657" stroke="none"/>
</g>
<g opacity="1">
<g opacity="1">
<path d="M345.953 872.855C344.746 872.752 343.502 872.928 342.203 873.355C340.586 873.886 338.976 874.417 337.359 874.948C336.954 875.216 336.545 875.462 336.141 875.73C335.331 876.264 333.582 876.552 330.891 876.542C329.545 876.537 328.205 876.516 326.859 876.511C327.801 876.918 328.731 877.323 329.672 877.73C331.554 878.543 336.122 878.846 343.391 878.605C348.246 878.443 352.033 878.746 355.328 879.292C355.307 879.269 355.288 879.285 355.266 879.261C355.25 879.244 354.624 878.539 354.359 878.323C353.761 877.836 353.273 877.395 352.328 876.48C352.281 876.434 351.81 875.984 351.641 875.823C351.498 875.687 351.363 875.581 351.078 875.355C351.067 875.345 350.641 875 350.484 874.855C350.176 874.57 349.785 874.243 349.453 873.948C348.332 873.339 347.161 872.957 345.953 872.855Z" fill="#000000" fill-rule="nonzero" opacity="0.998657" stroke="none"/>
</g>
<path d="M330.151 875.959C325.846 876.514 321.664 874.764 317.611 870.742C313.558 866.719 311.137 863.635 310.321 861.485C309.505 859.334 309.087 856.799 309.075 853.838C309.064 850.877 308.253 847.493 306.623 843.731C304.994 839.969 302.955 837.015 300.525 834.871C298.094 832.727 294.713 831.682 290.406 831.698C288.253 831.706 286.122 831.707 283.969 831.716C284.506 831.31 285.016 830.891 285.553 830.485C286.627 829.673 290.688 828.335 297.679 826.424C304.67 824.513 309.225 823.684 311.379 823.945C312.457 824.075 313.524 824.196 314.601 824.326C314.201 825.27 313.804 826.204 313.404 827.148C312.603 829.035 311.662 830.252 310.588 830.794C310.05 831.066 309.537 831.348 309 831.619C309.674 831.751 310.33 831.878 311.003 832.01C312.35 832.274 313.291 833.082 313.834 834.426C314.106 835.098 314.39 835.779 314.662 836.451C313.585 836.321 312.517 836.169 311.44 836.038C310.363 835.908 309.264 835.787 308.187 835.657C308.996 836.057 309.825 836.456 310.634 836.857C312.252 837.658 312.93 839.262 312.671 841.685C312.411 844.109 311.86 846.005 311.057 847.354C310.255 848.703 309.997 849.772 310.269 850.578C310.406 850.982 310.549 851.391 310.685 851.794C311.485 849.907 312.279 848.038 313.08 846.151C313.88 844.263 314.674 842.364 315.474 840.476C315.603 840.858 315.726 841.245 315.858 841.63C315.879 841.946 315.891 842.165 315.926 842.379C315.942 842.477 315.969 842.555 315.991 842.66C316.037 842.889 316.281 843.862 316.313 844.001C316.401 844.379 316.566 845.464 316.575 845.53C316.681 846.275 316.749 846.695 316.869 847.153C316.982 847.588 317.89 850.437 317.926 850.551C318.003 850.801 318.104 850.895 318.18 851.112C318.368 851.622 318.612 852.129 318.879 852.638C318.985 852.823 319.042 853.121 319.165 853.292C319.187 853.322 319.233 853.268 319.259 853.291C319.513 853.722 319.677 854.167 319.988 854.598C321.341 856.477 324.839 858.343 330.499 860.206C336.159 862.069 339.933 863.93 341.824 865.807C343.715 867.685 344.801 869.039 345.073 869.845C345.345 870.652 343.991 871.738 341.035 873.095C339.557 873.773 338.091 874.45 336.613 875.128C334.461 875.406 332.303 875.682 330.151 875.959Z" fill="#000000" fill-rule="nonzero" opacity="0.998657" stroke="none"/>
</g>
</g>
</g>
</svg>
