<?xml version="1.0" encoding="UTF-8" standalone="no"?>
<!DOCTYPE svg PUBLIC "-//W3C//DTD SVG 1.1//EN" "http://www.w3.org/Graphics/SVG/1.1/DTD/svg11.dtd">
<!-- Created with Vectornator (http://vectornator.io/) -->
<svg height="100%" stroke-miterlimit="10" style="fill-rule:nonzero;clip-rule:evenodd;stroke-linecap:round;stroke-linejoin:round;" version="1.1" viewBox="339.562 776.854 97.0437 81.3621" width="100%" xml:space="preserve" xmlns="http://www.w3.org/2000/svg" xmlns:vectornator="http://vectornator.io" xmlns:xlink="http://www.w3.org/1999/xlink">
<defs/>
<g id="Layer">
<g opacity="1">
<path d="M395.406 838.594C394.598 838.526 393.586 838.578 392.375 838.719C389.952 838.996 388.473 839.539 387.937 840.344C387.848 840.479 387.774 840.617 387.687 840.75C387.663 841.114 387.713 841.453 387.5 841.875C387.381 842.112 387.265 842.331 387.062 842.656C386.575 843.438 386.531 843.49 386.437 843.719C385.965 844.867 385.497 845.815 384.531 847.688C384.178 848.372 384.191 848.376 384.062 848.625C383.707 849.32 382.772 851.251 382.687 851.438C382.544 851.753 382.429 851.99 382.375 852.219C382.354 852.305 382.446 852.385 382.437 852.469C384.612 852.097 386.667 851.829 388.625 851.625C388.642 851.603 388.647 851.573 388.656 851.562C388.716 851.487 388.895 851.236 388.906 851.219C389.099 850.926 389.185 850.784 389.344 850.625C389.458 850.51 389.474 850.482 389.812 850.094C390.155 849.699 390.378 849.493 390.625 849.313C390.671 849.279 390.737 849.247 390.781 849.219C391.863 848.256 392.95 847.306 394.031 846.344C395.238 845.268 396.449 844.169 397.656 843.094C397.789 842.558 397.93 842.067 398.062 841.531C398.328 840.459 398.028 839.625 397.219 839.094C396.814 838.827 396.214 838.661 395.406 838.594ZM397.656 843.094C396.853 844.302 396.053 845.511 395.25 846.719C394.896 847.251 394.61 847.536 394.312 847.875C394.338 847.914 394.344 847.857 394.375 847.906C394.291 848.241 394.278 848.239 394.219 848.281C394.19 848.311 394.166 848.341 394.125 848.375C394.109 848.389 394.078 848.392 394.062 848.406C394.055 848.413 394.038 848.431 394.031 848.438C393.951 848.524 393.902 848.584 393.844 848.625C393.816 848.66 393.782 848.717 393.781 848.719C393.723 848.803 393.7 848.854 393.656 848.906C393.633 848.934 393.596 848.963 393.562 849C393.558 849.009 393.567 849.023 393.562 849.031C393.413 849.298 393.254 849.479 393.094 849.625C392.52 850.151 391.973 850.775 391.469 851.375C392.288 851.33 393.266 851.159 394.031 851.156C397.272 851.144 399.404 851.265 401.031 851.469C401.621 850.856 401.988 850.382 403.031 849.406C403.101 849.341 403.118 849.315 403.187 849.25C404.496 848.027 405.1 847.43 405.781 846.688C406.558 845.84 407.231 844.513 407.906 843.375C407.852 843.011 407.812 842.645 407.75 842.281C407.475 840.676 406.11 839.898 403.687 839.906C401.266 839.915 399.678 840.427 398.875 841.5C398.474 842.037 398.058 842.557 397.656 843.094ZM426.719 838.594C420.795 838.348 416.606 838.764 414.187 839.844C411.835 840.894 410.262 841.955 409.437 843C408.425 844.872 407.615 846.193 406.531 847.375C405.827 848.143 403.788 850.06 403.719 850.125C402.918 850.873 402.689 851.186 402.187 851.688C402.522 851.765 403.146 851.809 403.344 851.906C404.423 852.437 407.649 852.57 413.031 852.281C417.415 852.046 421.702 852.612 425.906 853.625C425.912 853.615 425.9 853.604 425.906 853.594C426.016 853.397 426.157 853.16 426.344 852.938C426.587 852.648 426.795 852.492 427 852.344C427.288 851.651 428.803 850.059 431.969 847.375C435.457 844.417 436.918 842.274 436.375 840.938C435.832 839.601 432.642 838.84 426.719 838.594ZM371.781 839.188C369.628 839.196 367.766 840.011 366.156 841.625C365.836 841.945 365.511 842.27 365.187 842.594C365.392 842.754 365.388 842.769 365.719 843C365.784 843.045 365.81 843.048 365.875 843.094C366.932 843.83 367.18 844.027 367.437 844.312C369.092 846.146 369.569 849.679 369.031 852.625C369.062 852.623 369.063 852.627 369.094 852.625C371.556 852.459 373.337 852.357 374.844 852.344C374.97 852.343 375.065 852.375 375.187 852.375C375.185 852.365 375.19 852.354 375.187 852.344C375.159 852.2 375.135 851.989 375.125 851.719C375.119 851.561 375.126 851.144 375.125 851.125C375.074 850.287 375.159 849.314 375.344 848.156C375.775 845.451 375.972 844.01 376.125 842.344C376.143 842.143 376.125 841.948 376.094 841.5C376.087 841.401 376.1 841.415 376.094 841.313C376 841.134 375.902 840.957 375.812 840.781C375.27 839.713 373.935 839.179 371.781 839.188ZM381.469 839.969C378.85 839.979 377.417 840.365 377.094 841.125C377.096 841.182 377.09 841.188 377.094 841.25C377.1 841.346 377.087 841.339 377.094 841.438C377.129 841.941 377.15 842.164 377.125 842.438C376.969 844.132 376.747 845.586 376.312 848.312C376.138 849.405 376.079 850.314 376.125 851.062C376.128 851.119 376.12 851.54 376.125 851.688C376.133 851.906 376.141 852.082 376.156 852.156C376.15 852.127 376.102 852.116 376.094 852.094C376.156 852.209 376.274 852.283 376.25 852.406C377.155 852.436 378.062 852.457 378.969 852.562C379.332 852.605 379.65 852.758 380.156 852.938C380.346 852.901 380.561 852.847 380.75 852.812C380.78 852.785 380.795 852.753 380.812 852.719C380.821 852.697 380.835 852.682 380.844 852.656C380.911 852.472 380.98 852.352 381.156 852.156C381.164 852.148 381.18 852.165 381.187 852.156C381.288 852.045 381.303 851.996 381.312 851.969C381.315 851.964 381.342 851.973 381.344 851.969C381.36 851.932 381.365 851.896 381.375 851.875C381.392 851.841 381.445 851.871 381.469 851.844C381.544 851.592 381.64 851.341 381.781 851.031C381.873 850.83 382.262 850.009 382.281 849.969C382.536 849.427 383.303 847.905 383.656 847.219C384.61 845.37 385.073 844.458 385.531 843.344C385.657 843.038 385.651 842.986 386.187 842.125C386.375 841.823 386.522 841.61 386.625 841.406C386.695 841.267 386.647 841.212 386.687 841.094C386.561 840.98 386.431 840.869 386.312 840.75C385.772 840.217 384.16 839.959 381.469 839.969ZM360.469 840.031C360.202 840.568 359.955 841.12 359.687 841.656C359.42 842.192 359.142 842.714 358.875 843.25C358.206 844.457 357.543 845.669 356.875 846.875C355.538 849.289 355.008 851.023 355.281 852.094C355.348 852.352 355.428 852.612 355.5 852.875C356.254 852.928 356.967 852.978 358.062 852.938C358.227 852.931 358.399 852.917 358.656 852.906C358.685 852.751 358.657 852.571 358.812 852.5C359.412 852.227 359.869 851.885 360.594 851.219C360.606 851.208 361.393 850.498 361.5 850.406C363.519 848.668 364.366 847.083 364 845.094C363.862 844.347 363.37 843.672 362.844 842.938C362.608 842.632 362.367 842.33 362.125 842.031C361.585 841.364 361.01 840.697 360.469 840.031ZM364.531 843.25C364.5 843.281 364.469 843.312 364.437 843.344C364.695 843.841 364.864 844.336 364.969 844.906C365.412 847.312 364.416 849.21 362.156 851.156C362.056 851.242 361.296 851.955 361.281 851.969C360.77 852.438 360.386 852.648 359.969 852.906C360.53 852.896 361.203 852.856 361.687 852.875C362.964 852.925 364.306 852.887 365.875 852.812C366.483 852.784 367.283 852.735 368.062 852.688C368.613 849.979 368.137 846.574 366.687 844.969C366.508 844.77 366.233 844.569 365.281 843.906C365.216 843.86 365.222 843.859 365.156 843.813C364.748 843.526 364.776 843.448 364.531 843.25ZM377.219 853.563C375.065 853.401 373.204 853.352 369.156 853.625C367.537 853.734 366.809 853.77 365.906 853.813C364.31 853.888 362.965 853.927 361.656 853.875C360.863 853.844 360.234 853.848 358.812 853.906C358.463 853.921 358.287 853.931 358.094 853.938C356.855 853.983 356.024 853.925 355.156 853.844C352.649 854.475 350.129 855.118 347.625 855.75C344.934 856.429 342.252 857.102 339.562 857.781C343.196 857.767 346.834 857.766 350.469 857.75C355.039 857.733 357.725 857.86 359.531 858.063C360.111 858.256 360.897 858.266 361.969 858.094C362.202 858.056 362.494 857.993 362.75 857.938C362.833 857.854 362.917 857.769 363 857.688C363.536 857.15 367.564 855.934 375.094 854.031C375.856 853.839 376.504 853.721 377.219 853.563Z" fill="#000000" fill-rule="nonzero" opacity="0.998657" stroke="none"/>
<path d="M395.551 796.209C394.743 796.282 393.73 796.238 392.518 796.107C390.094 795.848 388.61 795.317 388.069 794.516C387.978 794.381 387.903 794.243 387.816 794.111C387.789 793.747 387.836 793.408 387.62 792.988C387.498 792.752 387.381 792.534 387.176 792.21C386.683 791.432 386.638 791.38 386.543 791.152C386.062 790.008 385.587 789.064 384.607 787.199C384.249 786.517 384.261 786.513 384.131 786.265C383.77 785.573 382.821 783.649 382.735 783.463C382.588 783.149 382.472 782.913 382.416 782.684C382.395 782.599 382.486 782.517 382.477 782.434C384.654 782.789 386.71 783.041 388.67 783.231C388.688 783.253 388.693 783.282 388.702 783.293C388.763 783.368 388.944 783.617 388.955 783.635C389.15 783.926 389.236 784.067 389.397 784.225C389.512 784.339 389.528 784.367 389.87 784.753C390.215 785.145 390.44 785.349 390.688 785.528C390.734 785.561 390.801 785.592 390.845 785.62C391.934 786.575 393.028 787.516 394.117 788.47C395.332 789.536 396.551 790.626 397.766 791.692C397.903 792.227 398.048 792.717 398.184 793.251C398.458 794.321 398.165 795.157 397.359 795.695C396.957 795.964 396.358 796.136 395.551 796.209ZM397.766 791.692C396.954 790.49 396.145 789.287 395.333 788.086C394.974 787.556 394.686 787.273 394.386 786.937C394.412 786.897 394.418 786.954 394.449 786.905C394.362 786.571 394.349 786.573 394.289 786.531C394.261 786.501 394.236 786.472 394.195 786.438C394.179 786.424 394.148 786.422 394.132 786.408C394.125 786.401 394.108 786.383 394.101 786.377C394.02 786.291 393.97 786.231 393.912 786.191C393.884 786.156 393.849 786.099 393.849 786.097C393.79 786.014 393.766 785.963 393.722 785.911C393.699 785.883 393.661 785.854 393.628 785.818C393.623 785.809 393.633 785.794 393.627 785.786C393.476 785.521 393.315 785.341 393.154 785.196C392.577 784.675 392.025 784.055 391.516 783.459C392.335 783.498 393.315 783.661 394.08 783.658C397.32 783.646 399.452 783.508 401.077 783.292C401.672 783.9 402.042 784.372 403.093 785.339C403.163 785.404 403.181 785.43 403.251 785.495C404.568 786.708 405.177 787.299 405.864 788.037C406.647 788.878 407.33 790.201 408.014 791.333C407.963 791.697 407.926 792.064 407.866 792.428C407.603 794.034 406.245 794.823 403.822 794.833C401.4 794.843 399.808 794.343 398.997 793.276C398.592 792.743 398.172 792.226 397.766 791.692ZM426.862 795.97C420.941 796.261 416.748 795.877 414.322 794.816C411.961 793.784 410.381 792.735 409.548 791.696C408.521 789.832 407.701 788.518 406.608 787.344C405.899 786.581 403.845 784.68 403.775 784.616C402.969 783.873 402.737 783.563 402.232 783.065C402.566 782.984 403.19 782.936 403.387 782.837C404.462 782.298 407.686 782.141 413.071 782.389C417.456 782.59 421.739 781.992 425.935 780.947C425.941 780.958 425.929 780.968 425.936 780.978C426.047 781.174 426.19 781.41 426.378 781.631C426.624 781.919 426.833 782.073 427.039 782.22C427.332 782.91 428.859 784.491 432.045 787.15C435.556 790.081 437.033 792.213 436.5 793.554C435.967 794.894 432.783 795.679 426.862 795.97ZM371.922 795.795C369.768 795.803 367.9 795.002 366.278 793.4C365.956 793.082 365.629 792.76 365.302 792.439C365.506 792.278 365.502 792.263 365.83 792.029C365.895 791.983 365.921 791.98 365.986 791.934C367.037 791.189 367.284 790.991 367.539 790.703C369.18 788.858 369.63 785.321 369.07 782.38C369.1 782.382 369.101 782.377 369.132 782.379C371.595 782.526 373.377 782.615 374.884 782.617C375.01 782.617 375.105 782.584 375.228 782.583C375.226 782.593 375.23 782.604 375.228 782.614C375.2 782.758 375.178 782.969 375.17 783.24C375.165 783.397 375.175 783.814 375.175 783.833C375.13 784.671 375.222 785.643 375.416 786.8C375.868 789.501 376.076 790.941 376.241 792.606C376.261 792.806 376.244 793.002 376.217 793.45C376.21 793.549 376.224 793.535 376.218 793.637C376.126 793.816 376.029 793.994 375.941 794.17C375.406 795.243 374.075 795.787 371.922 795.795ZM381.603 794.94C378.984 794.95 377.548 794.574 377.219 793.817C377.221 793.76 377.215 793.755 377.218 793.692C377.224 793.596 377.211 793.603 377.217 793.505C377.248 793 377.268 792.778 377.241 792.504C377.072 790.811 376.839 789.359 376.383 786.636C376.201 785.546 376.135 784.637 376.175 783.888C376.177 783.832 376.166 783.41 376.17 783.263C376.177 783.045 376.184 782.869 376.198 782.794C376.192 782.824 376.144 782.835 376.136 782.857C376.197 782.742 376.315 782.666 376.29 782.544C377.195 782.507 378.101 782.479 379.007 782.367C379.37 782.322 379.687 782.166 380.192 781.983C380.382 782.017 380.598 782.07 380.787 782.103C380.817 782.131 380.832 782.162 380.85 782.196C380.859 782.218 380.872 782.233 380.882 782.259C380.95 782.443 381.02 782.562 381.198 782.756C381.205 782.764 381.222 782.747 381.229 782.756C381.331 782.867 381.346 782.915 381.356 782.942C381.358 782.947 381.385 782.938 381.387 782.942C381.403 782.979 381.408 783.015 381.419 783.036C381.436 783.069 381.489 783.039 381.513 783.066C381.59 783.318 381.688 783.568 381.831 783.876C381.925 784.077 382.32 784.895 382.339 784.935C382.598 785.474 383.376 786.991 383.735 787.674C384.703 789.516 385.173 790.424 385.64 791.534C385.768 791.839 385.762 791.891 386.305 792.748C386.495 793.048 386.644 793.26 386.748 793.463C386.82 793.602 386.772 793.657 386.813 793.775C386.687 793.89 386.559 794.002 386.441 794.122C385.904 794.659 384.295 794.93 381.603 794.94ZM360.603 795.037C360.332 794.503 360.081 793.953 359.81 793.418C359.538 792.884 359.256 792.365 358.985 791.831C358.307 790.629 357.635 789.422 356.957 788.221C355.602 785.818 355.059 784.088 355.324 783.016C355.389 782.757 355.466 782.496 355.537 782.233C356.29 782.174 357.003 782.119 358.099 782.151C358.264 782.156 358.435 782.168 358.693 782.177C358.722 782.332 358.696 782.513 358.852 782.582C359.454 782.851 359.913 783.189 360.643 783.85C360.655 783.861 361.448 784.564 361.555 784.656C363.587 786.378 364.447 787.956 364.096 789.948C363.964 790.696 363.477 791.375 362.956 792.113C362.722 792.42 362.484 792.724 362.244 793.025C361.709 793.696 361.139 794.367 360.603 795.037ZM364.641 791.788C364.609 791.757 364.578 791.726 364.547 791.695C364.8 791.196 364.965 790.699 365.066 790.128C365.491 787.719 364.481 785.83 362.206 783.901C362.106 783.816 361.34 783.109 361.325 783.095C360.81 782.63 360.424 782.423 360.005 782.167C360.567 782.173 361.24 782.209 361.724 782.186C363 782.126 364.342 782.154 365.912 782.216C366.52 782.24 367.321 782.283 368.1 782.325C368.672 785.028 368.221 788.436 366.784 790.053C366.606 790.253 366.332 790.456 365.386 791.126C365.321 791.172 365.327 791.174 365.262 791.221C364.855 791.51 364.885 791.588 364.641 791.788ZM377.25 781.38C375.098 781.558 373.236 781.621 369.187 781.379C367.567 781.282 366.839 781.252 365.936 781.216C364.339 781.153 362.994 781.124 361.685 781.186C360.893 781.223 360.263 781.224 358.841 781.176C358.492 781.165 358.315 781.156 358.122 781.151C356.884 781.115 356.053 781.179 355.186 781.267C352.673 780.654 350.149 780.031 347.64 779.418C344.945 778.759 342.257 778.107 339.562 777.448C343.196 777.434 346.834 777.409 350.469 777.397C355.039 777.379 357.723 777.231 359.529 777.015C360.107 776.817 360.892 776.801 361.966 776.965C362.199 777.001 362.491 777.062 362.748 777.116C362.831 777.198 362.916 777.283 363 777.364C363.54 777.897 367.577 779.082 375.121 780.928C375.885 781.114 376.533 781.227 377.25 781.38Z" fill="#000000" fill-rule="nonzero" opacity="0.998657" stroke="none"/>
</g>
</g>
</svg>
